<?xml version="1.0" encoding="UTF-8"?>
<svg version="1.1" xmlns="http://www.w3.org/2000/svg" width="497" height="280">
<path d="M0 0 C1.40958984 0.77537109 1.40958984 0.77537109 2.84765625 1.56640625 C3.55792969 2.03949219 4.26820313 2.51257813 5 3 C5 3.66 5 4.32 5 5 C5.5775 5.2475 6.155 5.495 6.75 5.75 C9.32939979 7.18299988 11.06121592 8.78424676 13 11 C13 11.66 13 12.32 13 13 C13.66 13 14.32 13 15 13 C22.51402769 23.21405435 27.10045891 36.23467668 26 49 C23.91300877 60.93498108 20.50805675 72.37428622 13 82 C12.05261513 83.67371328 11.10556316 85.34769429 10.17578125 87.03125 C8.14000854 90.4399857 5.79664275 93.63552952 3.48828125 96.86328125 C1.98108355 98.91763418 1.98108355 98.91763418 1 101 C0.34 101 -0.32 101 -1 101 C-1.28875 101.7425 -1.5775 102.485 -1.875 103.25 C-3.51889616 107.26841284 -4.94280045 109.94280045 -8 113 C-8.680625 114.051875 -9.36125 115.10375 -10.0625 116.1875 C-10.701875 117.115625 -11.34125 118.04375 -12 119 C-12.66 119 -13.32 119 -14 119 C-14.25910156 119.71800781 -14.51820312 120.43601563 -14.78515625 121.17578125 C-16.06011244 124.13974692 -17.58287319 126.55113802 -19.4375 129.1875 C-20.03433594 130.04730469 -20.63117188 130.90710938 -21.24609375 131.79296875 C-23 134 -23 134 -26 136 C-27.86328125 135.98828125 -27.86328125 135.98828125 -30 135 C-31.87204668 133.09919685 -33.52522894 131.25496488 -35.1875 129.1875 C-35.63802734 128.65318359 -36.08855469 128.11886719 -36.55273438 127.56835938 C-38.88127601 124.73012197 -40.18268103 122.54171553 -41 119 C-41.99 118.67 -42.98 118.34 -44 118 C-45.60546875 116.00390625 -45.60546875 116.00390625 -47.1875 113.5625 C-47.71730469 112.75941406 -48.24710938 111.95632812 -48.79296875 111.12890625 C-50 109 -50 109 -50 107 C-50.66 107 -51.32 107 -52 107 C-52 106.01 -52 105.02 -52 104 C-52.66 104 -53.32 104 -54 104 C-54.66 102.35 -55.32 100.7 -56 99 C-56.66 99 -57.32 99 -58 99 C-61 93.25 -61 93.25 -61 91 C-62.485 90.505 -62.485 90.505 -64 90 C-65.0625 88.2578125 -65.0625 88.2578125 -66 86.125 C-67.32513405 83.1324056 -68.65440069 81.26471658 -71 79 C-72.94208624 75.42656133 -74.55338388 71.79736731 -76 68 C-76.2371875 67.3915625 -76.474375 66.783125 -76.71875 66.15625 C-77.5047045 64.1127683 -78.25531494 62.05883518 -79 60 C-79.391875 58.948125 -79.78375 57.89625 -80.1875 56.8125 C-83.68644274 40.39438405 -78.54339741 26.78759611 -70.3671875 12.87109375 C-69.91601562 12.25363281 -69.46484375 11.63617188 -69 11 C-68.34 11 -67.68 11 -67 11 C-67 10.34 -67 9.68 -67 9 C-66.34 9 -65.68 9 -65 9 C-65 8.34 -65 7.68 -65 7 C-64.34 7 -63.68 7 -63 7 C-63 6.34 -63 5.68 -63 5 C-56.34616412 -0.22525603 -49.04216464 -3.55665532 -41 -6 C-40.28972656 -6.22558594 -39.57945313 -6.45117188 -38.84765625 -6.68359375 C-25.24785851 -10.58848617 -11.92578291 -6.80236964 0 0 Z M-56.78515625 21.94921875 C-64.19073832 31.21074522 -65.49183487 41.25360077 -64.75 52.9375 C-63.93218656 56.27690486 -62.67863708 59.00764695 -61 62 C-60.46375 61.278125 -59.9275 60.55625 -59.375 59.8125 C-55.55385032 55.28745433 -51.69155868 51.84138663 -46 50 C-46.763125 49.29875 -47.52625 48.5975 -48.3125 47.875 C-51.0714311 44.92358534 -52.70071251 42.8214338 -54 39 C-53.23687827 34.08210443 -51.96028681 31.05507839 -48 28 C-44.62212547 25.99153407 -43.25287582 25.95713969 -39.3125 26.625 C-36 28 -36 28 -34.625 29.625 C-33.29473881 34.6799925 -32.46322276 38.326518 -34.0625 43.3125 C-36.34999417 46.48547578 -38.40483767 47.56193507 -42 49 C-41.46375 49.2475 -40.9275 49.495 -40.375 49.75 C-35.17177671 52.48853857 -31.03444797 55.72823156 -27 60 C-26.54625 59.195625 -26.0925 58.39125 -25.625 57.5625 C-24 55 -24 55 -22 54 C-22 53.34 -22 52.68 -22 52 C-15.64828258 50.13095396 -8.59783482 49.88664222 -2.5 52.5 C0.64701314 55.64701314 2.31554705 58.91767874 4 63 C4.66 63 5.32 63 6 63 C11.0667498 52.93173752 11.22373742 42.32725742 7.98046875 31.640625 C5.79745214 26.51226851 3.36930845 22.55641385 -1 19 C-1.58652344 18.48695312 -2.17304688 17.97390625 -2.77734375 17.4453125 C-7.58369955 13.46698236 -11.83675938 11.82747212 -18 11 C-18 10.34 -18 9.68 -18 9 C-33.58765467 8.34213884 -45.66582988 9.80798493 -56.78515625 21.94921875 Z " fill="#252726" transform="translate(140,76)"/>
<path d="M0 0 C3.96 0 7.92 0 12 0 C14.11126943 4.22253885 14.2171997 6.14001523 14.125 10.75 C14.10695313 11.92046875 14.08890625 13.0909375 14.0703125 14.296875 C14.03550781 15.63492188 14.03550781 15.63492188 14 17 C14.90878906 16.67644531 15.81757813 16.35289063 16.75390625 16.01953125 C23.77027472 13.8158343 28.64236885 14.82118442 35 18 C35 18.66 35 19.32 35 20 C35.66 20 36.32 20 37 20 C40.33954817 24.13827919 40.39966623 28.04682045 40.29296875 33.14453125 C40.28872391 33.91431808 40.28447906 34.68410492 40.28010559 35.47721863 C40.26338597 37.92267646 40.2257477 40.36729357 40.1875 42.8125 C40.17244441 44.47589951 40.15875754 46.13931201 40.14648438 47.80273438 C40.11350465 51.86881082 40.06177006 55.93426313 40 60 C35.05504989 61.39076722 32.68820298 60.71102537 27 60 C26.67 50.1 26.34 40.2 26 30 C20.67229852 27.79382122 20.67229852 27.79382122 16 29 C13.6325008 32.5512488 13.7977302 33.93605775 13.91015625 38.12890625 C13.93013672 39.32837891 13.95011719 40.52785156 13.97070312 41.76367188 C14.03199773 44.30022513 14.09711405 46.83668886 14.16601562 49.37304688 C14.18470703 50.57123047 14.20339844 51.76941406 14.22265625 53.00390625 C14.25109619 54.10549072 14.27953613 55.2070752 14.30883789 56.34204102 C14.20692139 57.21916748 14.10500488 58.09629395 14 59 C10.74917327 61.16721782 9.70767847 61.27221018 5.9375 61.25 C5.05964844 61.25515625 4.18179687 61.2603125 3.27734375 61.265625 C1 61 1 61 -1 59 C-1.18860028 56.03982858 -1.25534576 53.1751035 -1.23046875 50.21484375 C-1.23001053 49.32575821 -1.22955231 48.43667267 -1.2290802 47.52064514 C-1.22605169 45.62662432 -1.21814763 43.73260611 -1.20581055 41.83862305 C-1.18790106 39.00104468 -1.18529864 36.16380005 -1.18554688 33.32617188 C-1.16319076 22.18439555 -0.79989793 11.1129663 0 0 Z " fill="#2D2F2E" transform="translate(358,80)"/>
<path d="M0 0 C2.67657155 2.60423178 4.02525654 4.74583726 5.3125 8.25 C5 11.125 5 11.125 4.3125 13.25 C4.9725 13.58 5.6325 13.91 6.3125 14.25 C5.6525 16.23 4.9925 18.21 4.3125 20.25 C4.9725 20.58 5.6325 20.91 6.3125 21.25 C5.8175 22.735 5.8175 22.735 5.3125 24.25 C5.3125 25.24 5.3125 26.23 5.3125 27.25 C5.291875 28.1575 5.27125 29.065 5.25 30 C5.23561685 33.34910847 5.23561685 33.34910847 5.9375 37 C6.06125 38.0725 6.185 39.145 6.3125 40.25 C4.3125 42.25 4.3125 42.25 1.9296875 42.4453125 C0.57230469 42.41050781 0.57230469 42.41050781 -0.8125 42.375 C-1.72257812 42.35695312 -2.63265625 42.33890625 -3.5703125 42.3203125 C-4.26898438 42.29710937 -4.96765625 42.27390625 -5.6875 42.25 C-6.0175 41.26 -6.3475 40.27 -6.6875 39.25 C-7.43 39.745 -8.1725 40.24 -8.9375 40.75 C-13.88273495 43.19325147 -19.33147189 43.02540353 -24.6875 42.25 C-27.51501772 40.99993953 -29.52149659 39.43500344 -31.6875 37.25 C-32.326875 36.651875 -32.96625 36.05375 -33.625 35.4375 C-35.29494646 31.99937494 -35.50980359 28.91720873 -34.6875 25.25 C-32.04099147 20.30102905 -28.81345346 16.64211162 -23.6875 14.25 C-20.92013107 13.77377496 -18.17860531 13.65019096 -15.375 13.5625 C-14.63443359 13.52833984 -13.89386719 13.49417969 -13.13085938 13.45898438 C-11.31691836 13.37706446 -9.50223647 13.31184178 -7.6875 13.25 C-8.3475 11.6 -9.0075 9.95 -9.6875 8.25 C-13.06186186 7.91619186 -13.06186186 7.91619186 -16.6875 8.25 C-17.368125 9.2090625 -17.368125 9.2090625 -18.0625 10.1875 C-20.08108343 12.7495482 -20.96468841 12.70876384 -24.125 13.125 C-27.64430605 13.49419962 -29.63288424 13.04519559 -32.6875 11.25 C-32.61956186 7.85309294 -32.48019222 5.22006258 -30.2734375 2.51953125 C-21.67313904 -5.15254116 -9.79581692 -6.37867148 0 0 Z M-12.625 23.125 C-13.31464844 23.30804688 -14.00429688 23.49109375 -14.71484375 23.6796875 C-16.3846941 24.16245612 -18.03846417 24.70032139 -19.6875 25.25 C-19.6875 25.91 -19.6875 26.57 -19.6875 27.25 C-20.3475 27.25 -21.0075 27.25 -21.6875 27.25 C-21.0275 28.57 -20.3675 29.89 -19.6875 31.25 C-15.6285184 31.5683515 -13.3400032 31.64717586 -9.8125 29.5 C-7.72375819 27.28839103 -7.00598149 26.22249386 -6.6875 23.25 C-9.19394589 21.99677706 -9.97296127 22.40396154 -12.625 23.125 Z " fill="#252625" transform="translate(313.6875,98.75)"/>
<path d="M0 0 C4.79275484 4.91564599 5.15121716 9.10268847 5.1328125 15.6953125 C5.13376923 16.44336151 5.13472595 17.19141052 5.13571167 17.96212769 C5.13639143 19.54067062 5.13455137 21.11921636 5.13037109 22.69775391 C5.1250049 25.12278455 5.13033064 27.54763125 5.13671875 29.97265625 C5.13605823 31.50520874 5.1347776 33.03776112 5.1328125 34.5703125 C5.13483673 35.29944855 5.13686096 36.02858459 5.13894653 36.77981567 C5.1149618 41.8850382 5.1149618 41.8850382 4 43 C2.37860563 43.12494616 0.75115878 43.17571624 -0.875 43.1875 C-1.75929688 43.20167969 -2.64359375 43.21585938 -3.5546875 43.23046875 C-6 43 -6 43 -9 41 C-9.99 41.66 -10.98 42.32 -12 43 C-19.40091249 44.02823663 -24.67122177 42.82114912 -31 39 C-31 38.01 -31 37.02 -31 36 C-31.66 36 -32.32 36 -33 36 C-34.01825961 31.36126179 -34.17719522 27.62469549 -33 23 C-30.08094162 19.35117703 -27.45294404 17.3994967 -23 16 C-23 15.01 -23 14.02 -23 13 C-23.721875 13.20625 -24.44375 13.4125 -25.1875 13.625 C-28.44641585 14.05952211 -30.08304504 13.41680669 -33 12 C-31.84289316 7.08229595 -30.8225781 3.52853363 -27 0 C-18.64833546 -4.25268808 -8.23420706 -4.81121105 0 0 Z M-22 13 C-21.67 13.99 -21.34 14.98 -21 16 C-18.85270859 15.71926927 -16.70716807 15.42511501 -14.5625 15.125 C-12.77005859 14.88136719 -12.77005859 14.88136719 -10.94140625 14.6328125 C-9.97074219 14.42398438 -9.00007813 14.21515625 -8 14 C-7.67 13.34 -7.34 12.68 -7 12 C-7.89163577 9.88316159 -7.89163577 9.88316159 -9 8 C-15.42286118 7.35771388 -17.58490204 8.69258736 -22 13 Z M-14 24.375 C-14.70125 24.44460937 -15.4025 24.51421875 -16.125 24.5859375 C-18.23401916 24.87535785 -18.23401916 24.87535785 -20 27 C-20 28.32 -20 29.64 -20 31 C-16.98131566 32.50934217 -14.32702771 32.17510672 -11 32 C-10.01 31.34 -9.02 30.68 -8 30 C-7.7497843 26.91634129 -7.7497843 26.91634129 -8 24 C-10.03224201 24 -11.97938258 24.15956652 -14 24.375 Z " fill="#2D2E2E" transform="translate(268,98)"/>
<path d="M0 0 C2.38490047 2.10432395 4.55623739 4.14740452 6 7 C5.67 8.65 5.34 10.3 5 12 C1.37 12.66 -2.26 13.32 -6 14 C-6 13.34 -6 12.68 -6 12 C-6.66 12 -7.32 12 -8 12 C-8 11.01 -8 10.02 -8 9 C-10.31 9 -12.62 9 -15 9 C-15.66 10.32 -16.32 11.64 -17 13 C-16.195625 13.12375 -15.39125 13.2475 -14.5625 13.375 C0.81954887 16.07360507 0.81954887 16.07360507 5.375 22.1875 C7.60432888 26.39547017 7.00560326 29.43610826 6 34 C5.505 34.99 5.505 34.99 5 36 C4.34 36 3.68 36 3 36 C3 36.66 3 37.32 3 38 C2.34 38 1.68 38 1 38 C0.67 38.99 0.34 39.98 0 41 C-6.51400142 44.19778251 -13.15720508 45.49594188 -20.23828125 43.30859375 C-25.08560155 41.12684318 -28.07933175 38.42525492 -31 34 C-31.8125 30.625 -31.8125 30.625 -32 28 C-23.54404145 25.34715026 -23.54404145 25.34715026 -20 26 C-18.824375 27.2375 -18.824375 27.2375 -17.625 28.5 C-15.14047481 31.39033171 -15.14047481 31.39033171 -11.1875 31.3125 C-10.135625 31.209375 -9.08375 31.10625 -8 31 C-8.33 30.01 -8.66 29.02 -9 28 C-11.79517906 26.85651766 -14.46654654 26.09574806 -17.4375 25.5625 C-22.88755496 24.36614647 -27.53149889 22.45301016 -31 18 C-31.65595338 12.2290843 -31.16146954 6.70804343 -27.875 1.875 C-19.18215183 -3.7942488 -9.36147112 -5.69030597 0 0 Z " fill="#2E302F" transform="translate(224,98)"/>
<path d="M0 0 C1.90952307 0.59312806 1.90952307 0.59312806 3.91796875 0.5078125 C6.58463542 0.5078125 9.25130208 0.5078125 11.91796875 0.5078125 C13.82075468 6.21617029 13.0500641 12.69458441 12.95068359 18.67553711 C12.92899153 20.34631151 12.92134989 22.01733135 12.92822266 23.68823242 C12.98712445 39.34526014 12.98712445 39.34526014 8.6015625 44.5546875 C4.50601415 48.40344926 0.40154627 49.53450658 -5.12109375 49.4921875 C-11.04746952 48.98878879 -16.20646388 47.2896015 -20.58203125 43.1328125 C-22.08203125 40.5078125 -22.08203125 40.5078125 -21.83203125 37.6953125 C-21.58453125 36.9734375 -21.33703125 36.2515625 -21.08203125 35.5078125 C-18.44203125 35.5078125 -15.80203125 35.5078125 -13.08203125 35.5078125 C-12.75203125 36.4978125 -12.42203125 37.4878125 -12.08203125 38.5078125 C-8.32858566 39.75896103 -5.0087277 39.96592709 -1.08203125 39.5078125 C1.00781106 38.42106256 1.00781106 38.42106256 1.91796875 36.5078125 C1.91796875 35.1878125 1.91796875 33.8678125 1.91796875 32.5078125 C1.34949219 32.83265625 0.78101563 33.1575 0.1953125 33.4921875 C-4.38822222 35.53630247 -9.46227432 35.03671272 -14.14453125 33.5078125 C-15.10359375 33.0128125 -15.10359375 33.0128125 -16.08203125 32.5078125 C-16.08203125 31.8478125 -16.08203125 31.1878125 -16.08203125 30.5078125 C-16.68015625 30.3221875 -17.27828125 30.1365625 -17.89453125 29.9453125 C-21.10789593 27.83367285 -22.13330497 25.09795655 -23.08203125 21.5078125 C-24.04877068 15.00852816 -22.82619722 9.9038164 -19.08203125 4.5078125 C-13.39809736 -1.32974122 -7.54586025 -2.05205838 0 0 Z M-11.58203125 9.9453125 C-13.74462144 13.6397374 -13.93766256 17.32215664 -13.08203125 21.5078125 C-10.5776318 24.57029539 -8.72059948 25.4234733 -4.76953125 25.9453125 C-0.8996302 25.83230168 -0.8996302 25.83230168 1.91796875 22.9453125 C4.21041902 19.6482567 4.21041902 19.6482567 3.98046875 15.8828125 C2.80572827 12.15128392 2.21088719 10.61865765 -1.08203125 8.5078125 C-5.07010225 7.71347392 -8.04115218 7.90930703 -11.58203125 9.9453125 Z " fill="#3DA7DF" transform="translate(356.08203125,164.4921875)"/>
<path d="M0 0 C3.96 0 7.92 0 12 0 C13.125 5.625 13.125 5.625 12 9 C14.64 9 17.28 9 20 9 C21.42258812 12.82320557 22.24042276 15.91281305 22 20 C19.03 20 16.06 20 13 20 C13 26.93 13 33.86 13 41 C15.64 41.33 18.28 41.66 21 42 C22.11445498 44.22890995 22.16480286 45.53055106 22.1875 48 C22.20167969 48.70125 22.21585937 49.4025 22.23046875 50.125 C22 52 22 52 20 54 C17.28836397 53.87017194 14.74017278 53.62680532 12.0625 53.25 C11.33353516 53.16234375 10.60457031 53.0746875 9.85351562 52.984375 C6.24589419 52.50820865 4.07118512 52.04745674 1 50 C-0.98918688 46.23116481 -1.19261791 43.25604924 -0.9765625 39.04296875 C-0.925 37.93115234 -0.8734375 36.81933594 -0.8203125 35.67382812 C-0.75585938 34.52333984 -0.69140625 33.37285156 -0.625 32.1875 C-0.56828125 31.01767578 -0.5115625 29.84785156 -0.453125 28.64257812 C-0.31198991 25.76107 -0.16060844 22.88047752 0 20 C-2.31 20 -4.62 20 -7 20 C-7.02688151 18.35425434 -7.04634123 16.70838587 -7.0625 15.0625 C-7.07410156 14.14597656 -7.08570313 13.22945312 -7.09765625 12.28515625 C-7 10 -7 10 -6 9 C-4.00041636 8.95919217 -1.99954746 8.95745644 0 9 C0 6.03 0 3.06 0 0 Z " fill="#282A29" transform="translate(331,87)"/>
<path d="M0 0 C5.46015409 2.43756879 7.49244101 5.79199288 10 11 C10 11.66 10 12.32 10 13 C10.66 13 11.32 13 12 13 C10.33980929 20.37862537 5.30512516 25.70889689 -0.875 29.8125 C-7.92877413 33.84322808 -13.95178012 35.16062624 -22 35 C-22.11662261 30.95857785 -22.1873935 26.91759135 -22.25 22.875 C-22.28351563 21.73289063 -22.31703125 20.59078125 -22.3515625 19.4140625 C-22.47662134 8.65900221 -22.47662134 8.65900221 -18 4 C-17.34 4 -16.68 4 -16 4 C-16 3.34 -16 2.68 -16 2 C-10.99569846 -0.99300332 -5.64959561 -0.59828157 0 0 Z " fill="#04A0F6" transform="translate(134,126)"/>
<path d="M0 0 C0.94552734 0.16242188 0.94552734 0.16242188 1.91015625 0.328125 C4.19078453 3.74906742 4.12940632 5.00999722 4.03515625 9.015625 C4.01710937 10.00949219 3.9990625 11.00335938 3.98046875 12.02734375 C3.94566406 13.16623047 3.94566406 13.16623047 3.91015625 14.328125 C4.57015625 13.998125 5.23015625 13.668125 5.91015625 13.328125 C10.73325693 12.92425828 15.31975676 12.76485851 19.91015625 14.390625 C24.41738029 18.75699829 25.10377785 23.43533164 25.203125 29.48046875 C25.18334157 31.7423742 25.14779611 34.00418881 25.09765625 36.265625 C25.07735352 38.00682617 25.07735352 38.00682617 25.05664062 39.78320312 C25.02147035 42.63199552 24.97224912 45.47981344 24.91015625 48.328125 C21.94015625 48.328125 18.97015625 48.328125 15.91015625 48.328125 C15.86117187 46.85859375 15.8121875 45.3890625 15.76171875 43.875 C15.68667757 41.94268965 15.61113032 40.0103989 15.53515625 38.078125 C15.50421875 37.11003906 15.47328125 36.14195312 15.44140625 35.14453125 C15.40273437 34.20996094 15.3640625 33.27539062 15.32421875 32.3125 C15.2770874 31.02424316 15.2770874 31.02424316 15.22900391 29.70996094 C14.89299421 27.1999222 14.16823897 25.50880172 12.91015625 23.328125 C9.49372866 23.07796627 9.49372866 23.07796627 5.91015625 23.328125 C3.78488097 26.51603792 3.63878226 27.49869583 3.53125 31.1796875 C3.49708984 32.11296875 3.46292969 33.04625 3.42773438 34.0078125 C3.40130859 34.97976562 3.37488281 35.95171875 3.34765625 36.953125 C3.2879842 38.88294463 3.22439853 40.81264861 3.15625 42.7421875 C3.13232178 43.5976416 3.10839355 44.4530957 3.08374023 45.33447266 C2.91015625 47.328125 2.91015625 47.328125 1.91015625 48.328125 C-0.76043226 48.46927661 -3.41416613 48.37059607 -6.08984375 48.328125 C-7.18615378 19.9465243 -7.18615378 19.9465243 -7.21484375 8.578125 C-7.21935547 7.84158691 -7.22386719 7.10504883 -7.22851562 6.34619141 C-7.20970746 -0.08150053 -6.36982652 0.23120967 0 0 Z " fill="#19A3ED" transform="translate(217.08984375,150.671875)"/>
<path d="M0 0 C4.16435201 1.63473717 6.35835096 4.10997069 8.9375 7.6875 C10 11 10 11 10 21 C2.08 21 -5.84 21 -14 21 C-12.42736974 25.25658528 -12.42736974 25.25658528 -8.6875 26.3125 C-5.2516981 26.95307324 -3.29365023 26.99807583 0 26 C0.33 25.01 0.66 24.02 1 23 C3.64 23.33 6.28 23.66 9 24 C8.71161525 27.36448872 8.04879887 28.93789234 5.9375 31.625 C1.83932976 34.93841424 -1.88156098 37.07514311 -7.26953125 36.9453125 C-13.0493714 35.98036474 -17.29354747 33.55019782 -21 29 C-24.08070093 23.59506918 -24.93666486 18.07449215 -23.53125 11.9609375 C-21.86485733 6.66418936 -19.51564796 4.17056133 -15 1 C-10.55150151 -1.22424924 -4.82791811 -0.50638474 0 0 Z M-14 12 C-14 12.33 -14 12.66 -14 13 C-9.38 13 -4.76 13 0 13 C-0.5739739 8.79819816 -0.5739739 8.79819816 -4 7 C-9.0185155 6.07553662 -10.8438274 8.30276924 -14 12 Z " fill="#35A8E6" transform="translate(396,164)"/>
<path d="M0 0 C1.12148438 -0.02578125 2.24296875 -0.0515625 3.3984375 -0.078125 C7.00079693 0.28821664 8.78986982 1.02597562 11.625 3.25 C13.91284857 6.70657607 13.85738969 9.68713378 13.8203125 13.765625 C13.81386719 15.01601562 13.80742187 16.26640625 13.80078125 17.5546875 C13.78402344 18.85664063 13.76726562 20.15859375 13.75 21.5 C13.74097656 22.81742188 13.73195313 24.13484375 13.72265625 25.4921875 C13.69908533 28.74497462 13.66618022 31.99739589 13.625 35.25 C10.29166667 35.25 6.95833333 35.25 3.625 35.25 C3.01527344 35.44078125 2.40554688 35.6315625 1.77734375 35.828125 C-3.79102407 37.51729478 -7.36350725 37.29397526 -12.55078125 34.578125 C-14.375 33.25 -14.375 33.25 -16 30.5 C-16.5732116 25.5321661 -16.64556341 21.2617254 -13.875 16.875 C-8.32674824 13.26863636 -1.83307802 12.97518817 4.625 13.25 C4.625 11.93 4.625 10.61 4.625 9.25 C-0.02552872 8.98067479 -0.02552872 8.98067479 -4.375 10.25 C-4.705 11.24 -5.035 12.23 -5.375 13.25 C-8.675 12.92 -11.975 12.59 -15.375 12.25 C-15.09801826 8.27992844 -14.60815777 6.52610788 -12 3.4375 C-8.04867267 0.14472722 -5.00282915 0.06868873 0 0 Z M-7.375 24.25 C-6.715 25.57 -6.055 26.89 -5.375 28.25 C-2.58561788 28.66890218 -2.58561788 28.66890218 0.625 28.25 C3.54290525 25.9995803 3.54290525 25.9995803 5.625 23.25 C5.625 22.59 5.625 21.93 5.625 21.25 C0.23050707 20.97570375 -2.89425805 20.88944354 -7.375 24.25 Z " fill="#04A0F7" transform="translate(262.375,163.75)"/>
<path d="M0 0 C1.62890625 0.828125 1.62890625 0.828125 3.87890625 2.328125 C3.87890625 2.988125 3.87890625 3.648125 3.87890625 4.328125 C4.53890625 4.328125 5.19890625 4.328125 5.87890625 4.328125 C8.93545679 10.22290104 10.72577082 14.65906649 9.87890625 21.328125 C7.96876602 27.10147018 5.0549407 31.00765007 -0.12109375 34.328125 C-6.03631478 36.76117818 -10.37265133 36.45229744 -16.2734375 34.15234375 C-17.56970807 33.57409197 -18.85154501 32.96289937 -20.12109375 32.328125 C-20.12109375 31.668125 -20.12109375 31.008125 -20.12109375 30.328125 C-20.78109375 30.328125 -21.44109375 30.328125 -22.12109375 30.328125 C-25.73859608 24.22358982 -27.23795517 19.43542497 -26.12109375 12.328125 C-24.40773511 6.99563982 -21.8987185 3.39070497 -17.12109375 0.328125 C-11.8714248 -1.42176465 -5.31679949 -1.68414275 0 0 Z M-16.12109375 11.328125 C-17.85669603 13.80755683 -18.17810292 14.86064981 -17.80859375 17.890625 C-16.74692334 22.20593272 -16.74692334 22.20593272 -13.49609375 25.078125 C-9.45259999 26.57571528 -7.2511467 26.49700791 -3.12109375 25.328125 C-0.32440126 22.71787867 0.60173966 20.11606846 0.87890625 16.328125 C-0.07999715 12.97196309 -1.12461103 10.22589739 -4.12109375 8.328125 C-10.80871593 7.66365948 -10.80871593 7.66365948 -16.12109375 11.328125 Z " fill="#2398D7" transform="translate(321.12109375,164.671875)"/>
<path d="M0 0 C4.26004556 2.18463875 6.16617081 4.89047958 7.765625 9.3125 C7.765625 10.3025 7.765625 11.2925 7.765625 12.3125 C4.795625 12.3125 1.825625 12.3125 -1.234375 12.3125 C-1.894375 10.9925 -2.554375 9.6725 -3.234375 8.3125 C-6.534375 8.3125 -9.834375 8.3125 -13.234375 8.3125 C-13.234375 8.9725 -13.234375 9.6325 -13.234375 10.3125 C-13.894375 10.3125 -14.554375 10.3125 -15.234375 10.3125 C-16.44698377 13.95032632 -16.62982052 16.48985999 -16.234375 20.3125 C-13.75944141 23.73373173 -12.35173719 25.10727021 -8.171875 25.875 C-5.12729007 25.59726173 -5.12729007 25.59726173 -3.421875 23.3125 C-0.79442772 20.91026249 0.05942052 21.04093242 3.515625 21.0625 C4.93329557 21.12652383 6.35068949 21.20365881 7.765625 21.3125 C7.69768686 24.70940706 7.55831722 27.34243742 5.3515625 30.04296875 C0.73517604 34.16111085 -3.32762994 36.47104973 -9.671875 36.125 C-15.41328681 34.8155552 -19.66758015 33.66227818 -23.109375 28.6875 C-26.4218372 22.68777541 -27.00713303 17.13921317 -25.109375 10.5625 C-23.32728996 5.89978435 -20.71937739 2.84131669 -16.4375 0.20703125 C-11.4514976 -1.81742717 -5.10163208 -1.56973295 0 0 Z " fill="#0E9FF0" transform="translate(199.234375,164.6875)"/>
<path d="M0 0 C1.51953125 1.30078125 1.51953125 1.30078125 3 3 C2.6875 6.1875 2.6875 6.1875 2 9 C2.66 9.33 3.32 9.66 4 10 C3.34 11.98 2.68 13.96 2 16 C2.66 16.33 3.32 16.66 4 17 C3.505 18.485 3.505 18.485 3 20 C3 20.99 3 21.98 3 23 C2.979375 23.9075 2.95875 24.815 2.9375 25.75 C2.92311685 29.09910847 2.92311685 29.09910847 3.625 32.75 C3.74875 33.8225 3.8725 34.895 4 36 C2 38 2 38 -0.3828125 38.1953125 C-1.74019531 38.16050781 -1.74019531 38.16050781 -3.125 38.125 C-4.03507812 38.10695312 -4.94515625 38.08890625 -5.8828125 38.0703125 C-6.58148438 38.04710937 -7.28015625 38.02390625 -8 38 C-8.33 37.01 -8.66 36.02 -9 35 C-9.7425 35.495 -10.485 35.99 -11.25 36.5 C-16.19523495 38.94325147 -21.64397189 38.77540353 -27 38 C-29.82751772 36.74993953 -31.83399659 35.18500344 -34 33 C-34.639375 32.401875 -35.27875 31.80375 -35.9375 31.1875 C-37.60744646 27.74937494 -37.82230359 24.66720873 -37 21 C-34.35349147 16.05102905 -31.12595346 12.39211162 -26 10 C-23.23263107 9.52377496 -20.49110531 9.40019096 -17.6875 9.3125 C-16.94693359 9.27833984 -16.20636719 9.24417969 -15.44335938 9.20898438 C-13.62941836 9.12706446 -11.81473647 9.06184178 -10 9 C-10.66 7.02 -11.32 5.04 -12 3 C-11.01 3.33 -10.02 3.66 -9 4 C-9 9 -9 14 -9 19 C-10.62451419 19.33569297 -12.24962917 19.6684796 -13.875 20 C-14.77992188 20.185625 -15.68484375 20.37125 -16.6171875 20.5625 C-19 21 -19 21 -21 21 C-21.33 21.66 -21.66 22.32 -22 23 C-22.66 23 -23.32 23 -24 23 C-23.34 23.99 -22.68 24.98 -22 26 C-18.63023788 26.51842494 -16.17614616 26.73797406 -13.20703125 24.875 C-11.74436672 23.65205959 -10.36468118 22.33139628 -9 21 C-9.50603992 23.16874252 -9.99983813 24.99967627 -11 27 C-10.34 27 -9.68 27 -9 27 C-8.67 29.97 -8.34 32.94 -8 36 C-4.7 36 -1.4 36 2 36 C1.84152588 35.32493408 1.68305176 34.64986816 1.51977539 33.9543457 C0.91569426 30.52081552 0.78399209 27.21572541 0.68359375 23.73046875 C0.66281265 23.04946609 0.64203156 22.36846344 0.62062073 21.66682434 C0.55562122 19.50714492 0.49647288 17.34735154 0.4375 15.1875 C0.3942675 13.71678544 0.35065175 12.24608209 0.30664062 10.77539062 C0.19999141 7.18371283 0.09858651 3.59190918 0 0 Z " fill="#2C2E2D" transform="translate(316,103)"/>
<path d="M0 0 C0 0.66 0 1.32 0 2 C0.66 2 1.32 2 2 2 C5.33954817 6.13827919 5.39966623 10.04682045 5.29296875 15.14453125 C5.28872391 15.91431808 5.28447906 16.68410492 5.28010559 17.47721863 C5.26338597 19.92267646 5.2257477 22.36729357 5.1875 24.8125 C5.17244441 26.47589951 5.15875754 28.13931201 5.14648438 29.80273438 C5.11350465 33.86881082 5.06177006 37.93426313 5 42 C0.05504989 43.39076722 -2.31179702 42.71102537 -8 42 C-8.33 31.44 -8.66 20.88 -9 10 C-9.66 9.67 -10.32 9.34 -11 9 C-11 8.34 -11 7.68 -11 7 C-11.61875 6.9175 -12.2375 6.835 -12.875 6.75 C-15 6 -15 6 -16.25 3.9375 C-16.62125 2.9784375 -16.62125 2.9784375 -17 2 C-15.04916284 -0.63936793 -13.90763718 -1.02052507 -10.625 -1.75 C-6.58850536 -2.02837894 -3.61918611 -1.80959305 0 0 Z " fill="#2E2F2E" transform="translate(393,98)"/>
<path d="M0 0 C1.06154297 -0.02416992 1.06154297 -0.02416992 2.14453125 -0.04882812 C6.6708314 -0.05304256 9.52623399 0.54318935 13.125 3.3125 C16.18868819 7.14211023 17.46470237 11.42257384 17.125 16.3125 C16.08214232 19.17304887 14.72665809 21.72785003 13.125 24.3125 C12.465 24.3125 11.805 24.3125 11.125 24.3125 C11.125 24.9725 11.125 25.6325 11.125 26.3125 C7.66346154 29.3125 7.66346154 29.3125 5.125 29.3125 C4.465 31.2925 3.805 33.2725 3.125 35.3125 C0.155 35.3125 -2.815 35.3125 -5.875 35.3125 C-5.19297283 29.07682302 -4.23734064 26.15217335 0.625 22.0625 C1.4190625 21.45921875 2.213125 20.8559375 3.03125 20.234375 C5.42322197 18.03875894 6.28999552 16.43382625 7.125 13.3125 C6.795 12.3225 6.465 11.3325 6.125 10.3125 C1.46006566 9.3639866 1.46006566 9.3639866 -3.1875 9.9375 C-5.42250525 11.75861539 -6.01882686 13.60128505 -6.875 16.3125 C-13.02734375 16.41015625 -13.02734375 16.41015625 -14.875 16.3125 C-15.875 15.3125 -15.875 15.3125 -16.25 12.125 C-15.75591744 7.10182733 -14.39593082 5.83343082 -10.875 2.3125 C-7.17289441 -0.1555704 -4.28387746 -0.01929675 0 0 Z " fill="#279EDF" transform="translate(424.875,150.6875)"/>
<path d="M0 0 C2.97 0 5.94 0 9 0 C10.14630567 2.29261134 10.12669318 3.57880456 10.12939453 6.12670898 C10.13254669 6.97776718 10.13569885 7.82882538 10.13894653 8.70567322 C10.1369223 9.62651199 10.13489807 10.54735077 10.1328125 11.49609375 C10.13376923 12.44057877 10.13472595 13.38506378 10.13571167 14.35816956 C10.13639293 16.35800239 10.13454242 18.35783742 10.13037109 20.35766602 C10.12502801 23.42143726 10.13031486 26.4850615 10.13671875 29.54882812 C10.13605784 31.48958366 10.13477642 33.4303391 10.1328125 35.37109375 C10.13483673 36.28990829 10.13686096 37.20872284 10.13894653 38.15538025 C10.13579437 39.00959061 10.13264221 39.86380096 10.12939453 40.74389648 C10.12820114 41.87069069 10.12820114 41.87069069 10.12698364 43.02024841 C10 45 10 45 9 48 C6.03 48 3.06 48 0 48 C0 32.16 0 16.32 0 0 Z " fill="#04A0F6" transform="translate(282,151)"/>
<path d="M0 0 C2.01822917 0.29296875 4.03645833 0.5859375 6.0546875 0.87890625 C8.08140667 1.1684297 8.08140667 1.1684297 10 0 C13.0625 -0.125 13.0625 -0.125 16 0 C18.01554229 2.01554229 17.1639879 6.10238875 17.16796875 8.8671875 C17.17296135 10.05297897 17.17296135 10.05297897 17.17805481 11.26272583 C17.18312785 12.93897925 17.18546302 14.61524281 17.18530273 16.29150391 C17.18748492 18.85726608 17.20562439 21.42259549 17.22460938 23.98828125 C17.22754407 25.61458186 17.22952836 27.24088452 17.23046875 28.8671875 C17.23765427 29.63602264 17.24483978 30.40485779 17.25224304 31.19699097 C17.23591079 35.00473224 17.16425612 36.75361582 15 40 C12.375 40.1875 12.375 40.1875 10 40 C10 40.99 10 41.98 10 43 C3.44602465 44.51150282 -4.93178419 45.76878948 -11.24609375 43.0234375 C-12.875 41.75 -12.875 41.75 -15 39 C-15 37.68 -15 36.36 -15 35 C-13.02 35 -11.04 35 -9 35 C-9 35.99 -9 36.98 -9 38 C-3.39 38 2.22 38 8 38 C8.66 34.04 9.32 30.08 10 26 C9.34 25.67 8.68 25.34 8 25 C8.33 24.01 8.66 23.02 9 22 C9.22718496 19.43365139 9.41608184 16.88321893 9.5625 14.3125 C9.60568359 13.61060547 9.64886719 12.90871094 9.69335938 12.18554688 C9.7991736 10.45724794 9.90006581 8.7286489 10 7 C8.68 6.67 7.36 6.34 6 6 C6 5.34 6 4.68 6 4 C4.02 3.34 2.04 2.68 0 2 C0 1.34 0 0.68 0 0 Z " fill="#07A0F5" transform="translate(351,167)"/>
<path d="M0 0 C3.135834 2.73121025 3.69601728 5.87263084 4.0625 9.97265625 C3.96046355 13.28246371 2.8719919 15.31681161 1 18 C-1.6875 19.875 -1.6875 19.875 -4 21 C-3.34 21.33 -2.68 21.66 -2 22 C-2 22.66 -2 23.32 -2 24 C-2.72445312 24.02578125 -3.44890625 24.0515625 -4.1953125 24.078125 C-11.88505545 24.52925659 -16.71834348 26.13149276 -22 32 C-21.74455985 28.55155804 -20.76248498 27.78313846 -18.125 25.375 C-16.12741987 23.8568391 -14.08762379 22.39174919 -12 21 C-12.63228516 20.29423828 -12.63228516 20.29423828 -13.27734375 19.57421875 C-13.82519531 18.95160156 -14.37304688 18.32898438 -14.9375 17.6875 C-15.75541016 16.76517578 -15.75541016 16.76517578 -16.58984375 15.82421875 C-18 14 -18 14 -19 11 C-17.7931526 4.48302403 -15.15239058 1.60887496 -10.1875 -2.5 C-6.43034525 -3.35877823 -3.31560367 -1.7565645 0 0 Z " fill="#282929" transform="translate(104,104)"/>
<path d="M0 0 C2 2 2 2 2.22705078 4.79736328 C2.21657715 5.95993652 2.20610352 7.12250977 2.1953125 8.3203125 C2.18886719 9.57714844 2.18242187 10.83398438 2.17578125 12.12890625 C2.15902344 13.44761719 2.14226562 14.76632813 2.125 16.125 C2.11496983 17.46483721 2.10584404 18.80468152 2.09765625 20.14453125 C2.07402075 23.42986573 2.04107234 26.71484465 2 30 C-1.33333333 30 -4.66666667 30 -8 30 C-8.60972656 30.19078125 -9.21945312 30.3815625 -9.84765625 30.578125 C-15.41602407 32.26729478 -18.98850725 32.04397526 -24.17578125 29.328125 C-26 28 -26 28 -27.625 25.25 C-28.1982116 20.2821661 -28.27056341 16.0117254 -25.5 11.625 C-20.08211613 8.10337549 -13.34518091 7.48202605 -7 8 C-6.34 8.66 -5.68 9.32 -5 10 C-6.77021322 10.336611 -8.54119674 10.66917293 -10.3125 11 C-11.29863281 11.185625 -12.28476562 11.37125 -13.30078125 11.5625 C-16 12 -16 12 -19 12 C-19 12.99 -19 13.98 -19 15 C-18.34 14.67 -17.68 14.34 -17 14 C-14.95944995 13.92934383 -12.91665743 13.91578024 -10.875 13.9375 C-9.77929688 13.94652344 -8.68359375 13.95554688 -7.5546875 13.96484375 C-6.71164062 13.97644531 -5.86859375 13.98804688 -5 14 C-3.875 18.75 -3.875 18.75 -5 21 C-5.66 21 -6.32 21 -7 21 C-7.33 22.65 -7.66 24.3 -8 26 C-7.01 26 -6.02 26 -5 26 C-5 26.66 -5 27.32 -5 28 C-3.35 28 -1.7 28 0 28 C0 18.76 0 9.52 0 0 Z M-19 19 C-18.34 20.32 -17.68 21.64 -17 23 C-14.21061788 23.41890218 -14.21061788 23.41890218 -11 23 C-8.08209475 20.7495803 -8.08209475 20.7495803 -6 18 C-6 17.34 -6 16.68 -6 16 C-11.39449293 15.72570375 -14.51925805 15.63944354 -19 19 Z " fill="#34A0DF" transform="translate(274,169)"/>
<path d="M0 0 C2.375 1 2.375 1 4 2 C4 2.66 4 3.32 4 4 C4.66 4 5.32 4 6 4 C8.34728069 7.66762608 8.4430704 10.71698615 8 15 C6.38343846 18.05992005 4.9237629 20.24119476 2.25 22.4375 C-1.32050745 23.33012686 -4.52053342 23.02661489 -8 22 C-11 20.125 -11 20.125 -13 17 C-13.82017623 13.15103013 -13.88721704 9.84086365 -13 6 C-9.80445813 1.21581731 -5.78428094 -1.02831661 0 0 Z " fill="#0D9DEC" transform="translate(131,102)"/>
<path d="M0 0 C-3.4352048 2.29013653 -4.985331 2.17842973 -9 2 C-9.33 2.99 -9.66 3.98 -10 5 C-10.99 5.33 -11.98 5.66 -13 6 C-13 7.98 -13 9.96 -13 12 C-7.39 12 -1.78 12 4 12 C4 9.69 4 7.38 4 5 C3.34 5 2.68 5 2 5 C2 4.34 2 3.68 2 3 C4.95061143 2.68101498 6.44098326 2.5566419 8.8125 4.4375 C10.6196735 8.33719019 10.18851908 11.7269009 10 16 C6.7 16 3.4 16 0 16 C0 15.34 0 14.68 0 14 C-4.95 14.33 -9.9 14.66 -15 15 C-15 18.75366417 -13.88579937 20.78715662 -12 24 C-11.01 24.33 -10.02 24.66 -9 25 C-9 25.66 -9 26.32 -9 27 C-7.35 27 -5.7 27 -4 27 C-3.67 26.01 -3.34 25.02 -3 24 C-0.03 24 2.94 24 6 24 C6 24.99 6 25.98 6 27 C4.68 27.33 3.36 27.66 2 28 C2 28.66 2 29.32 2 30 C-2.96822412 31.65607471 -6.81488349 31.41479078 -11.75 29.6875 C-16.14475415 27.40560842 -17.45168422 26.47179498 -19.1875 21.8125 C-20.68349741 14.79281986 -20.76293038 9.39698165 -17 3 C-11.88895825 -0.96105736 -6.16205465 -0.29604177 0 0 Z " fill="#07A0F4" transform="translate(394,167)"/>
<path d="M0 0 C5.46015409 2.43756879 7.49244101 5.79199288 10 11 C10 11.66 10 12.32 10 13 C10.66 13 11.32 13 12 13 C10.33980929 20.37862537 5.30512516 25.70889689 -0.875 29.8125 C-7.92877413 33.84322808 -13.95178012 35.16062624 -22 35 C-22.11662261 30.95857785 -22.1873935 26.91759135 -22.25 22.875 C-22.28351563 21.73289063 -22.31703125 20.59078125 -22.3515625 19.4140625 C-22.47662134 8.65900221 -22.47662134 8.65900221 -18 4 C-17.34 4 -16.68 4 -16 4 C-16 3.34 -16 2.68 -16 2 C-10.99569846 -0.99300332 -5.64959561 -0.59828157 0 0 Z M-12.9375 4.4375 C-15.92446508 8.14857783 -15.44147939 11.40861439 -15 16 C-15.66 16 -16.32 16 -17 16 C-17 14.02 -17 12.04 -17 10 C-17.99 10.33 -18.98 10.66 -20 11 C-20 18.26 -20 25.52 -20 33 C-14.42289934 33 -11.86887975 32.90005063 -7 31 C-7 30.01 -7 29.02 -7 28 C-6.05125 28.020625 -5.1025 28.04125 -4.125 28.0625 C-1.09333717 28.22551826 -1.09333717 28.22551826 1 27 C1 26.34 1 25.68 1 25 C1.66 25 2.32 25 3 25 C3.33 23.68 3.66 22.36 4 21 C4.66 21.33 5.32 21.66 6 22 C6 20.68 6 19.36 6 18 C6.66 18 7.32 18 8 18 C8 15.03 8 12.06 8 9 C6.35 8.34 4.7 7.68 3 7 C3 6.34 3 5.68 3 5 C1.02 5 -0.96 5 -3 5 C-3 4.34 -3 3.68 -3 3 C-6.88817732 2.69504492 -9.4026107 2.70766055 -12.9375 4.4375 Z " fill="#1DA0E6" transform="translate(134,126)"/>
<path d="M0 0 C-0.33 0.66 -0.66 1.32 -1 2 C-4.3 1.67 -7.6 1.34 -11 1 C-10.34 2.65 -9.68 4.3 -9 6 C-9.33 6.33 -9.66 6.66 -10 7 C-9.34 7.66 -8.68 8.32 -8 9 C-10.01822917 9.42317708 -12.03645833 9.84635417 -14.0546875 10.26953125 C-16.37046549 10.92308838 -16.37046549 10.92308838 -18 14 C-18.66 14 -19.32 14 -20 14 C-19.67 14.66 -19.34 15.32 -19 16 C-16.47266765 16.65555119 -16.47266765 16.65555119 -14 17 C-17.08809695 18.76462683 -18.23312136 19 -22 19 C-21.67 17.35 -21.34 15.7 -21 14 C-21.721875 14.20625 -22.44375 14.4125 -23.1875 14.625 C-26.44641585 15.05952211 -28.08304504 14.41680669 -31 13 C-29.84289316 8.08229595 -28.8225781 4.52853363 -25 1 C-17.13255701 -3.00612128 -8.13684567 -3.42604028 0 0 Z " fill="#333333" transform="translate(266,97)"/>
<path d="M0 0 C1.98 0.66 3.96 1.32 6 2 C6 2.66 6 3.32 6 4 C6.66 4 7.32 4 8 4 C11.05655054 9.89477604 12.84686457 14.33094149 12 21 C10.08985977 26.77334518 7.17603445 30.67952507 2 34 C-0.97041186 34.92855755 -3.92392815 35.54200708 -7 36 C-7 35.34 -7 34.68 -7 34 C-5.865625 33.71125 -4.73125 33.4225 -3.5625 33.125 C-2.386875 32.75375 -1.21125 32.3825 0 32 C0.33 31.34 0.66 30.68 1 30 C2.32 30 3.64 30 5 30 C4.505 27.525 4.505 27.525 4 25 C3.01 25 2.02 25 1 25 C1 25.99 1 26.98 1 28 C-1.97 28 -4.94 28 -8 28 C-5.98038494 26.41315959 -4.31164157 25.10999114 -1.875 24.25 C0.35337553 23.01530505 0.35337553 23.01530505 1.375 19.6875 C2.031961 15.81143008 1.91601479 14.35302589 0 11 C-1.99369369 8.55785778 -1.99369369 8.55785778 -5.9375 8.8125 C-8.67636155 8.83809684 -10.34007532 9.11335844 -13 10 C-13 9.01 -13 8.02 -13 7 C-10.35541621 5.67770811 -8.32238699 5.90322806 -5.375 5.9375 C-3.87066406 5.95103516 -3.87066406 5.95103516 -2.3359375 5.96484375 C-1.56507813 5.97644531 -0.79421875 5.98804688 0 6 C0 6.66 0 7.32 0 8 C0.99 8.33 1.98 8.66 3 9 C4.96316807 11.93825154 5.22746706 14.26612009 5.125 17.75 C5.10695313 18.54921875 5.08890625 19.3484375 5.0703125 20.171875 C5.04710937 20.77515625 5.02390625 21.3784375 5 22 C5.66 21.67 6.32 21.34 7 21 C7.66 21.33 8.32 21.66 9 22 C8.97608189 14.71693452 8.74563623 9.53183413 3.47265625 4.20703125 C1.99561583 2.90568059 1.99561583 2.90568059 0 2 C0 1.34 0 0.68 0 0 Z " fill="#1399E5" transform="translate(319,165)"/>
<path d="M0 0 C0 0.66 0 1.32 0 2 C0.86625 1.443125 0.86625 1.443125 1.75 0.875 C4 0 4 0 6.1875 0.4375 C8 2 8 2 8.75 5.625 C8.87375 7.295625 8.87375 7.295625 9 9 C9.66 9 10.32 9 11 9 C11 15.93 11 22.86 11 30 C9.02 30 7.04 30 5 30 C4.97494385 29.40985107 4.9498877 28.81970215 4.92407227 28.21166992 C4.80799948 25.53673186 4.68532428 22.8621362 4.5625 20.1875 C4.52318359 19.25873047 4.48386719 18.32996094 4.44335938 17.37304688 C4.40146484 16.48037109 4.35957031 15.58769531 4.31640625 14.66796875 C4.27974854 13.84578857 4.24309082 13.0236084 4.20532227 12.17651367 C4.06572228 9.82094822 4.06572228 9.82094822 3 7 C2.34 6.67 1.68 6.34 1 6 C1 5.34 1 4.68 1 4 C-1.97 4 -4.94 4 -8 4 C-4.5 0 -4.5 0 0 0 Z " fill="#04A0F6" transform="translate(229,167)"/>
<path d="M0 0 C0.66 0 1.32 0 2 0 C2 0.66 2 1.32 2 2 C1.34 2 0.68 2 0 2 C-0.33 7.28 -0.66 12.56 -1 18 C-0.01 18.33 0.98 18.66 2 19 C1.67 20.32 1.34 21.64 1 23 C1.969375 22.649375 2.93875 22.29875 3.9375 21.9375 C8.41489226 20.62547727 12.46325355 21.23873189 17 22 C17 21.01 17 20.02 17 19 C17.99 19 18.98 19 20 19 C20.33 20.65 20.66 22.3 21 24 C19.68 24 18.36 24 17 24 C16.67 24.99 16.34 25.98 16 27 C10.54032344 28.94327471 7.4477497 29.45148736 2 27 C2 26.34 2 25.68 2 25 C0.68 24.34 -0.64 23.68 -2 23 C-2 22.34 -2 21.68 -2 21 C-2.66 21 -3.32 21 -4 21 C-5.74189166 15.77432501 -6.62301001 11.51808862 -6 6 C-3.5625 3.0625 -3.5625 3.0625 -1 1 C-0.67 0.67 -0.34 0.34 0 0 Z " fill="#05A0F4" transform="translate(303,171)"/>
<path d="M0 0 C2.42130331 3.63195496 2.21022785 5.38349348 2.125 9.6875 C2.10695313 10.86699219 2.08890625 12.04648438 2.0703125 13.26171875 C2.03550781 14.61716797 2.03550781 14.61716797 2 16 C2.89976562 15.67257813 3.79953125 15.34515625 4.7265625 15.0078125 C8.76379718 13.76484526 11.80777316 13.85544045 16 14 C16 14.66 16 15.32 16 16 C13.69 16 11.38 16 9 16 C8.34 17.32 7.68 18.64 7 20 C8.72226496 23.24849977 8.72226496 23.24849977 12 24 C12 24.66 12 25.32 12 26 C12.99 26.33 13.98 26.66 15 27 C14.67 27.66 14.34 28.32 14 29 C12.63875 28.4740625 12.63875 28.4740625 11.25 27.9375 C7.50816932 26.846302 7.50816932 26.846302 4 28 C1.73401552 31.39897673 1.76257346 32.56319173 1.8046875 36.54296875 C1.81113281 37.61611328 1.81757813 38.68925781 1.82421875 39.79492188 C1.84097656 40.91447266 1.85773438 42.03402344 1.875 43.1875 C1.88402344 44.31865234 1.89304687 45.44980469 1.90234375 46.61523438 C1.92593138 49.41036828 1.958847 52.20507845 2 55 C-0.55166371 52.44833629 -0.25696287 51.48677233 -0.265625 47.94921875 C-0.26820313 46.94052734 -0.27078125 45.93183594 -0.2734375 44.89257812 C-0.26183594 43.30606445 -0.26183594 43.30606445 -0.25 41.6875 C-0.25773437 40.64142578 -0.26546875 39.59535156 -0.2734375 38.51757812 C-0.27085937 37.50501953 -0.26828125 36.49246094 -0.265625 35.44921875 C-0.26336914 34.52455811 -0.26111328 33.59989746 -0.25878906 32.6472168 C0.02111679 29.78399122 0.81264922 27.60727846 2 25 C1.34 24.67 0.68 24.34 0 24 C0 16.08 0 8.16 0 0 Z " fill="#686B6A" transform="translate(370,81)"/>
<path d="M0 0 C2.97 0 5.94 0 9 0 C10.14630567 2.29261134 10.12669318 3.57880456 10.12939453 6.12670898 C10.13254669 6.97776718 10.13569885 7.82882538 10.13894653 8.70567322 C10.1369223 9.62651199 10.13489807 10.54735077 10.1328125 11.49609375 C10.13376923 12.44057877 10.13472595 13.38506378 10.13571167 14.35816956 C10.13639293 16.35800239 10.13454242 18.35783742 10.13037109 20.35766602 C10.12502801 23.42143726 10.13031486 26.4850615 10.13671875 29.54882812 C10.13605784 31.48958366 10.13477642 33.4303391 10.1328125 35.37109375 C10.13483673 36.28990829 10.13686096 37.20872284 10.13894653 38.15538025 C10.13579437 39.00959061 10.13264221 39.86380096 10.12939453 40.74389648 C10.12820114 41.87069069 10.12820114 41.87069069 10.12698364 43.02024841 C10 45 10 45 9 48 C6.03 48 3.06 48 0 48 C0 32.16 0 16.32 0 0 Z M2 2 C2 16.52 2 31.04 2 46 C3.98 46 5.96 46 8 46 C8 31.48 8 16.96 8 2 C6.02 2 4.04 2 2 2 Z " fill="#61B4DD" transform="translate(282,151)"/>
<path d="M0 0 C1.28132813 0.10183594 2.56265625 0.20367187 3.8828125 0.30859375 C4.87023437 0.39238281 5.85765625 0.47617188 6.875 0.5625 C6.875 0.8925 6.875 1.2225 6.875 1.5625 C5.4828125 1.6553125 5.4828125 1.6553125 4.0625 1.75 C0.7776963 2.24487829 0.7776963 2.24487829 -0.8125 4.6875 C-2.23824316 7.65671983 -2.23824316 7.65671983 -3.3125 11.3125 C-5.125 14.5625 -5.125 14.5625 -6.953125 15.30078125 C-10.82955104 15.89660229 -13.81024697 15.91045006 -17.125 13.5625 C-17.05532569 10.07878457 -16.93633452 7.48391508 -14.5703125 4.796875 C-9.38046342 0.36073844 -6.95360339 -0.56893119 0 0 Z " fill="#1C1D1C" transform="translate(298.125,96.4375)"/>
<path d="M0 0 C-0.1875 1.875 -0.1875 1.875 -1 4 C-1.804375 4.28875 -2.60875 4.5775 -3.4375 4.875 C-6.24316084 5.77367199 -6.24316084 5.77367199 -7.25 8.625 C-8.09469183 12.42611321 -8.59938246 16.12736377 -9 20 C-8.34 20.33 -7.68 20.66 -7 21 C-6.71125 22.11375 -6.4225 23.2275 -6.125 24.375 C-4.94254672 28.18512725 -4.43377899 29.182117 -1 31 C2.13838661 31.98499147 4.97071032 32.10564855 8.25 32.0625 C9.14203125 32.05347656 10.0340625 32.04445312 10.953125 32.03515625 C11.96632813 32.01775391 11.96632813 32.01775391 13 32 C13 31.34 13 30.68 13 30 C14.32 29.67 15.64 29.34 17 29 C17 28.01 17 27.02 17 26 C15.824375 26.309375 15.824375 26.309375 14.625 26.625 C13.75875 26.74875 12.8925 26.8725 12 27 C11.34 26.34 10.68 25.68 10 25 C10.99 25 11.98 25 13 25 C13.33 24.01 13.66 23.02 14 22 C16.64 22.33 19.28 22.66 22 23 C21.71161525 26.36448872 21.04879887 27.93789234 18.9375 30.625 C14.83932976 33.93841424 11.11843902 36.07514311 5.73046875 35.9453125 C-0.0493714 34.98036474 -4.29354747 32.55019782 -8 28 C-11.08070093 22.59506918 -11.93666486 17.07449215 -10.53125 10.9609375 C-9.01249815 6.13347626 -5.80523238 0 0 0 Z " fill="#58AADB" transform="translate(383,165)"/>
<path d="M0 0 C2.1640625 -0.29296875 2.1640625 -0.29296875 4.625 -0.1875 C5.44226563 -0.16042969 6.25953125 -0.13335937 7.1015625 -0.10546875 C8.04128906 -0.05326172 8.04128906 -0.05326172 9 0 C8.93206186 3.39690706 8.79269222 6.02993742 6.5859375 8.73046875 C1.96955104 12.84861085 -2.09325494 15.15854973 -8.4375 14.8125 C-13.24564561 13.71590539 -17.49087915 12.60648348 -20.9375 8.9375 C-22 7 -22 7 -22 5 C-21.01 5 -20.02 5 -19 5 C-18.67 6.65 -18.34 8.3 -18 10 C-13.71 10.99 -9.42 11.98 -5 13 C-5 12.34 -5 11.68 -5 11 C-3.02 11 -1.04 11 1 11 C1 10.34 1 9.68 1 9 C-1.99480917 8.1276588 -4.63575911 7.89170234 -7.75 7.9375 C-8.94882813 7.95103516 -8.94882813 7.95103516 -10.171875 7.96484375 C-11.07679688 7.98224609 -11.07679688 7.98224609 -12 8 C-12.33 7.34 -12.66 6.68 -13 6 C-11.84371094 5.72736328 -11.84371094 5.72736328 -10.6640625 5.44921875 C-9.15972656 5.07216797 -9.15972656 5.07216797 -7.625 4.6875 C-6.62726563 4.44386719 -5.62953125 4.20023438 -4.6015625 3.94921875 C-1.6915014 3.17806142 -1.6915014 3.17806142 0 0 Z " fill="#0D9DED" transform="translate(198,186)"/>
<path d="M0 0 C1.90952307 0.59312806 1.90952307 0.59312806 3.91796875 0.5078125 C6.58463542 0.5078125 9.25130208 0.5078125 11.91796875 0.5078125 C12.24796875 1.4978125 12.57796875 2.4878125 12.91796875 3.5078125 C11.06171875 3.476875 11.06171875 3.476875 9.16796875 3.4453125 C6.82528239 3.43298257 5.04772678 3.46964837 2.79296875 4.1328125 C-0.13106985 4.71762022 -2.36435488 3.55782382 -5.08203125 2.5078125 C-3.6900721 5.2917308 -1.92627346 5.48680247 0.91796875 6.5078125 C0.91796875 7.1678125 0.91796875 7.8278125 0.91796875 8.5078125 C0.26570313 8.55679688 -0.3865625 8.60578125 -1.05859375 8.65625 C-6.01482978 9.08023479 -10.41222576 9.66446823 -15.08203125 11.5078125 C-16.26523736 5.35514074 -16.26523736 5.35514074 -15.58203125 2.1953125 C-11.29443222 -2.62823641 -5.55011206 -1.50932479 0 0 Z " fill="#229FE4" transform="translate(356.08203125,164.4921875)"/>
<path d="M0 0 C0.33 0.66 0.66 1.32 1 2 C3.30965848 3.05352843 5.6429774 4.05719096 8 5 C8 5.99 8 6.98 8 8 C6.88625 7.690625 6.88625 7.690625 5.75 7.375 C2.59244012 6.94442365 1.52168374 7.08699854 -1 9 C-2.28254644 11.53770003 -2.28254644 11.53770003 -3 14 C-9.15234375 14.09765625 -9.15234375 14.09765625 -11 14 C-12 13 -12 13 -12.375 9.8125 C-11.8836855 4.81746929 -10.49408231 3.49408231 -7 0 C-4.30234372 -1.34882814 -2.84835666 -0.80338265 0 0 Z " fill="#3DA1D7" transform="translate(421,153)"/>
<path d="M0 0 C0.66 0 1.32 0 2 0 C2 2.97 2 5.94 2 9 C-5.92 9 -13.84 9 -22 9 C-19.73826764 13.52346473 -18.46594067 14.05828666 -14 16 C-14 16.66 -14 17.32 -14 18 C-15.65 18 -17.3 18 -19 18 C-19 17.34 -19 16.68 -19 16 C-19.61875 15.95875 -20.2375 15.9175 -20.875 15.875 C-21.926875 15.441875 -21.926875 15.441875 -23 15 C-24.125 12 -24.125 12 -25 9 C-25.66 8.67 -26.32 8.34 -27 8 C-26.34 6.68 -25.68 5.36 -25 4 C-24.67 4.33 -24.34 4.66 -24 5 C-21.64686445 5.07271741 -19.29166332 5.08370868 -16.9375 5.0625 C-15.64714844 5.05347656 -14.35679687 5.04445312 -13.02734375 5.03515625 C-12.02832031 5.02355469 -11.02929688 5.01195312 -10 5 C-10 5.66 -10 6.32 -10 7 C-6.7 7 -3.4 7 0 7 C0 4.69 0 2.38 0 0 Z " fill="#32A2E1" transform="translate(404,176)"/>
<path d="M0 0 C1.68222656 -0.05607422 1.68222656 -0.05607422 3.3984375 -0.11328125 C7.2419892 0.39391867 8.8515816 1.67931062 11.625 4.3125 C10.965 4.9725 10.305 5.6325 9.625 6.3125 C8.635 5.6525 7.645 4.9925 6.625 4.3125 C4.02254502 4.17028935 1.53382316 4.12447068 -1.0625 4.1875 C-1.76439453 4.19652344 -2.46628906 4.20554688 -3.18945312 4.21484375 C-4.91811525 4.23836296 -6.64660145 4.27423287 -8.375 4.3125 C-8.705 5.6325 -9.035 6.9525 -9.375 8.3125 C-8.055 8.6425 -6.735 8.9725 -5.375 9.3125 C-5.375 8.6525 -5.375 7.9925 -5.375 7.3125 C-4.055 7.6425 -2.735 7.9725 -1.375 8.3125 C-2.365 8.9725 -3.355 9.6325 -4.375 10.3125 C-4.705 11.3025 -5.035 12.2925 -5.375 13.3125 C-8.675 12.9825 -11.975 12.6525 -15.375 12.3125 C-15.09801826 8.34242844 -14.60815777 6.58860788 -12 3.5 C-8.06776389 0.22313658 -4.98334921 0.10833368 0 0 Z " fill="#3FA3DA" transform="translate(262.375,163.6875)"/>
<path d="M0 0 C5.12583611 -0.10251672 9.94997778 -0.03590199 15 1 C14.3515625 2.953125 14.3515625 2.953125 13 5 C10.3984375 5.609375 10.3984375 5.609375 7.375 5.75 C6.37210938 5.80671875 5.36921875 5.8634375 4.3359375 5.921875 C3.56507813 5.94765625 2.79421875 5.9734375 2 6 C1.87625 6.639375 1.7525 7.27875 1.625 7.9375 C1.41875 8.618125 1.2125 9.29875 1 10 C0.01 10.495 0.01 10.495 -1 11 C-1.69227032 13.80980673 -1.69227032 13.80980673 -2.125 17.0625 C-2.29257813 18.16722656 -2.46015625 19.27195313 -2.6328125 20.41015625 C-2.75398437 21.26480469 -2.87515625 22.11945313 -3 23 C-3.99 22.67 -4.98 22.34 -6 22 C-5.10638298 15.36170213 -5.10638298 15.36170213 -4.375 12.875 C-3.87791231 10.38956155 -4.39144997 8.4342001 -5 6 C-4.360625 5.566875 -3.72125 5.13375 -3.0625 4.6875 C-0.73253997 3.08760823 -0.73253997 3.08760823 0 0 Z " fill="#08A0F5" transform="translate(182,166)"/>
<path d="M0 0 C3.96 0 7.92 0 12 0 C12.66 1.32 13.32 2.64 14 4 C14.99 4.33 15.98 4.66 17 5 C19.35119399 8.52679099 19.21443452 10.02879485 19.125 14.1875 C19.10695313 15.27417969 19.08890625 16.36085937 19.0703125 17.48046875 C19.04710937 18.31191406 19.02390625 19.14335937 19 20 C18.01 20 17.02 20 16 20 C15.34 20.66 14.68 21.32 14 22 C14.02320313 21.25234375 14.04640625 20.5046875 14.0703125 19.734375 C14.08835937 18.74953125 14.10640625 17.7646875 14.125 16.75 C14.15980469 15.28820312 14.15980469 15.28820312 14.1953125 13.796875 C13.99645953 10.94930049 13.55438946 9.36962868 12 7 C11.34 6.67 10.68 6.34 10 6 C10 5.34 10 4.68 10 4 C6.7 3.67 3.4 3.34 0 3 C0 2.01 0 1.02 0 0 Z " fill="#05A0F6" transform="translate(309,167)"/>
<path d="M0 0 C3.3125 0.0625 3.3125 0.0625 7 1 C10.91552651 7.26484242 10.3468458 13.75059599 10.1875 20.9375 C10.17396484 22.09830078 10.16042969 23.25910156 10.14648438 24.45507812 C10.1113141 27.30387052 10.06209287 30.15168844 10 33 C7.03 33 4.06 33 1 33 C0.95101562 31.54207031 0.90203125 30.08414063 0.8515625 28.58203125 C0.77651097 26.6588358 0.70096417 24.73565962 0.625 22.8125 C0.5940625 21.85279297 0.563125 20.89308594 0.53125 19.90429688 C0.49257812 18.97294922 0.45390625 18.04160156 0.4140625 17.08203125 C0.3826416 16.22843018 0.3512207 15.3748291 0.31884766 14.49536133 C-0.03349578 11.73785578 -0.87071247 9.53000031 -2 7 C-1.01 7.33 -0.02 7.66 1 8 C1.96088383 10.88265149 2.11670941 12.67662271 2.09765625 15.66796875 C2.09282227 17.00698242 2.09282227 17.00698242 2.08789062 18.37304688 C2.07951172 19.30181641 2.07113281 20.23058594 2.0625 21.1875 C2.05798828 22.12787109 2.05347656 23.06824219 2.04882812 24.03710938 C2.03704626 26.35813712 2.02059558 28.67903644 2 31 C3.98 31 5.96 31 8 31 C8 24.07 8 17.14 8 10 C7.34 10 6.68 10 6 10 C5.34 7.69 4.68 5.38 4 3 C3.01 3 2.02 3 1 3 C0.67 2.01 0.34 1.02 0 0 Z " fill="#5CB3E2" transform="translate(232,166)"/>
<path d="M0 0 C0 0.66 0 1.32 0 2 C0.66 2 1.32 2 2 2 C2.35807422 8.32597793 2.35807422 8.32597793 0.9375 11 C-2.19442656 12.61647822 -4.67185286 11.78665296 -8 11 C-10 9 -10 9 -10.25 6.0625 C-10 3 -10 3 -8 0 C-5.0187907 -1.19248372 -3.02213602 -0.97140086 0 0 Z " fill="#2DA7E8" transform="translate(428,188)"/>
<path d="M0 0 C0.125 3.375 0.125 3.375 0 7 C-0.66 7.66 -1.32 8.32 -2 9 C-2.66 8.67 -3.32 8.34 -4 8 C-3.938125 8.94875 -3.87625 9.8975 -3.8125 10.875 C-3.874375 11.90625 -3.93625 12.9375 -4 14 C-7 16 -7 16 -11 16 C-11 17.32 -11 18.64 -11 20 C-11.66 20 -12.32 20 -13 20 C-13 20.99 -13 21.98 -13 23 C-14.32 23 -15.64 23 -17 23 C-16.61931231 17.54347638 -14.87995114 15.69068523 -11 12 C-10.28837557 10.35202764 -9.60968047 8.68834592 -9 7 C-8.34 6.67 -7.68 6.34 -7 6 C-7 6.66 -7 7.32 -7 8 C-6.34 8 -5.68 8 -5 8 C-5.061875 7.236875 -5.12375 6.47375 -5.1875 5.6875 C-5 3 -5 3 -3.625 1.1875 C-2 0 -2 0 0 0 Z " fill="#089EF4" transform="translate(439,162)"/>
<path d="M0 0 C0.66 -0.33 1.32 -0.66 2 -1 C2 0.98 2 2.96 2 5 C1.01 5.33 0.02 5.66 -1 6 C-1.33 6.99 -1.66 7.98 -2 9 C-2.99 9 -3.98 9 -5 9 C-5 7.35 -5 5.7 -5 4 C-8.3 3.34 -11.6 2.68 -15 2 C-15 2.66 -15 3.32 -15 4 C-16.65 3.67 -18.3 3.34 -20 3 C-19.3125 1.0625 -19.3125 1.0625 -18 -1 C-12.56637039 -3.0376111 -4.80020626 -3.20013751 0 0 Z " fill="#1CA3ED" transform="translate(272,169)"/>
<path d="M0 0 C2.64 0 5.28 0 8 0 C8.33 0.99 8.66 1.98 9 3 C11.67643957 3.89214652 13.25384378 4.13540211 16 4.125 C17.0209375 4.12886719 17.0209375 4.12886719 18.0625 4.1328125 C20.21874781 4.06631126 20.21874781 4.06631126 23 3 C23.33 3.99 23.66 4.98 24 6 C21.54159395 6.02691685 19.08348118 6.04679802 16.625 6.0625 C15.92632812 6.07087891 15.22765625 6.07925781 14.5078125 6.08789062 C9.2265625 6.11328125 9.2265625 6.11328125 7 5 C7 4.01 7 3.02 7 2 C5.02 2 3.04 2 1 2 C2.28422125 5.95968219 3.28526984 8.02798275 7 10 C10.25803754 10.36666139 13.4768012 10.28177973 16.75 10.1875 C17.63816406 10.17396484 18.52632813 10.16042969 19.44140625 10.14648438 C21.62822578 10.11121309 23.81379966 10.06192752 26 10 C26 9.01 26 8.02 26 7 C27.32 7.33 28.64 7.66 30 8 C26.72011518 12.09985602 23.09067967 13.406551 18 14 C11.4126696 14 5.34778844 12.23039902 0.5 7.625 C-1 5 -1 5 -0.75 2.1875 C-0.5025 1.465625 -0.255 0.74375 0 0 Z " fill="#53A3D0" transform="translate(335,200)"/>
<path d="M0 0 C2 4 2 4 1.625 6.25 C1.41875 6.8275 1.2125 7.405 1 8 C3.64 8 6.28 8 9 8 C10.42258812 11.82320557 11.24042276 14.91281305 11 19 C8.03 19 5.06 19 2 19 C2 25.93 2 32.86 2 40 C5.96 40.495 5.96 40.495 10 41 C11.60725635 44.21451269 11.05748185 47.43612536 11 51 C10.01 51.495 10.01 51.495 9 52 C9 49.03 9 46.06 9 43 C8.071875 43.061875 7.14375 43.12375 6.1875 43.1875 C3 43 3 43 1.3190918 41.80737305 C-0.44568103 39.38934357 -0.34454396 37.86870166 -0.29296875 34.89453125 C-0.28330078 33.91162109 -0.27363281 32.92871094 -0.26367188 31.91601562 C-0.23853516 30.89185547 -0.21339844 29.86769531 -0.1875 28.8125 C-0.16719727 27.25885742 -0.16719727 27.25885742 -0.14648438 25.67382812 C-0.11111389 23.11536301 -0.06175544 20.5579422 0 18 C2.97 18 5.94 18 9 18 C9 15.36 9 12.72 9 10 C6.03 10 3.06 10 0 10 C0 6.7 0 3.4 0 0 Z " fill="#ABABAB" transform="translate(342,88)"/>
<path d="M0 0 C0.33 1.32 0.66 2.64 1 4 C0.34 4 -0.32 4 -1 4 C-1.08114106 5.77007714 -1.13925505 7.54122098 -1.1875 9.3125 C-1.22230469 10.29863281 -1.25710937 11.28476563 -1.29296875 12.30078125 C-1.22128802 14.99826734 -1.22128802 14.99826734 0.28125 16.8125 C2.97508202 18.67369303 5.8013175 18.6982375 9 19 C9 18.01 9 17.02 9 16 C10.65 16 12.3 16 14 16 C13.67 11.38 13.34 6.76 13 2 C13.66 2 14.32 2 15 2 C17.34728069 5.66762608 17.4430704 8.71698615 17 13 C15.38343846 16.05992005 13.9237629 18.24119476 11.25 20.4375 C7.67949255 21.33012686 4.47946658 21.02661489 1 20 C-2 18.125 -2 18.125 -4 15 C-4.63131147 11.22889165 -4.65518618 7.76877005 -4 4 C-2 1.3125 -2 1.3125 0 0 Z " fill="#56A5CF" transform="translate(122,104)"/>
<path d="M0 0 C2 2 2 2 2.22705078 4.79736328 C2.21657715 5.95993652 2.20610352 7.12250977 2.1953125 8.3203125 C2.18886719 9.57714844 2.18242187 10.83398438 2.17578125 12.12890625 C2.15902344 13.44761719 2.14226562 14.76632813 2.125 16.125 C2.11496983 17.46483721 2.10584404 18.80468152 2.09765625 20.14453125 C2.07402075 23.42986573 2.04107234 26.71484465 2 30 C-2 30 -6 30 -10 30 C-9.67 28.35 -9.34 26.7 -9 25 C-11.31 24.67 -13.62 24.34 -16 24 C-16 23.67 -16 23.34 -16 23 C-15.113125 22.71125 -14.22625 22.4225 -13.3125 22.125 C-10.49617576 21.16851252 -7.74916844 20.13201054 -5 19 C-5 19.66 -5 20.32 -5 21 C-5.66 21 -6.32 21 -7 21 C-7.33 22.65 -7.66 24.3 -8 26 C-7.01 26 -6.02 26 -5 26 C-5 26.66 -5 27.32 -5 28 C-3.35 28 -1.7 28 0 28 C0 18.76 0 9.52 0 0 Z " fill="#3FA2DA" transform="translate(274,169)"/>
<path d="M0 0 C0.99 0.99 1.98 1.98 3 3 C2.37351562 3.07476562 1.74703125 3.14953125 1.1015625 3.2265625 C-1.395372 3.62827751 -3.63577975 4.09666905 -6 5 C-8.42060067 9.16343315 -8.18944706 13.26382362 -8 18 C-7.01 17.67 -6.02 17.34 -5 17 C-4.67 18.32 -4.34 19.64 -4 21 C-2.906875 21.28875 -1.81375 21.5775 -0.6875 21.875 C3 23 3 23 6 25 C6 25.66 6 26.32 6 27 C5.27554688 27.02578125 4.55109375 27.0515625 3.8046875 27.078125 C-3.88505545 27.52925659 -8.71834348 29.13149276 -14 35 C-13.74455985 31.55155804 -12.76248498 30.78313846 -10.125 28.375 C-8.12741987 26.8568391 -6.08762379 25.39174919 -4 24 C-4.63228516 23.29423828 -4.63228516 23.29423828 -5.27734375 22.57421875 C-5.82519531 21.95160156 -6.37304688 21.32898438 -6.9375 20.6875 C-7.75541016 19.76517578 -7.75541016 19.76517578 -8.58984375 18.82421875 C-10 17 -10 17 -11 14 C-9.97816063 8.48206741 -8.30354957 5.58629131 -4 2 C-1.6875 0.6875 -1.6875 0.6875 0 0 Z " fill="#656665" transform="translate(96,101)"/>
<path d="M0 0 C1.85625 0.1546875 1.85625 0.1546875 3.75 0.3125 C3.75 0.9725 3.75 1.6325 3.75 2.3125 C2.63625 2.415625 1.5225 2.51875 0.375 2.625 C-0.82125 2.851875 -2.0175 3.07875 -3.25 3.3125 C-5.37527528 6.50041292 -5.52137399 7.48307083 -5.62890625 11.1640625 C-5.66306641 12.09734375 -5.69722656 13.030625 -5.73242188 13.9921875 C-5.75884766 14.96414062 -5.78527344 15.93609375 -5.8125 16.9375 C-5.87217205 18.86731963 -5.93575772 20.79702361 -6.00390625 22.7265625 C-6.02783447 23.5820166 -6.0517627 24.4374707 -6.07641602 25.31884766 C-6.25 27.3125 -6.25 27.3125 -7.25 28.3125 C-9.89 28.3125 -12.53 28.3125 -15.25 28.3125 C-15.25 20.0625 -15.25 11.8125 -15.25 3.3125 C-14.92 3.3125 -14.59 3.3125 -14.25 3.3125 C-14.25 10.9025 -14.25 18.4925 -14.25 26.3125 C-12.27 26.3125 -10.29 26.3125 -8.25 26.3125 C-8.27094727 25.70253174 -8.29189453 25.09256348 -8.31347656 24.46411133 C-8.39692861 21.68457706 -8.44875011 18.9053068 -8.5 16.125 C-8.55027344 14.68543945 -8.55027344 14.68543945 -8.6015625 13.21679688 C-8.6624631 8.8167282 -8.66585741 6.06252853 -6.5 2.15625 C-4.02425282 0.12751272 -3.13346177 -0.26112181 0 0 Z " fill="#65B2DE" transform="translate(226.25,170.6875)"/>
<path d="M0 0 C2.74970798 1.05405472 4.59600505 2.25164004 7 4 C7 6.31 7 8.62 7 11 C2.15311808 10.21824485 -2.3766367 8.60155722 -7 7 C-7 6.67 -7 6.34 -7 6 C-6.21625 6.061875 -5.4325 6.12375 -4.625 6.1875 C-3.75875 6.125625 -2.8925 6.06375 -2 6 C-1.34 5.01 -0.68 4.02 0 3 C-4.95 2.67 -9.9 2.34 -15 2 C-10.3284905 -1.11433967 -5.47108637 -0.60633174 0 0 Z " fill="#0D9FED" transform="translate(197,164)"/>
<path d="M0 0 C1.32 0.33 2.64 0.66 4 1 C4 3.97 4 6.94 4 10 C4.804375 10.2475 5.60875 10.495 6.4375 10.75 C7.283125 11.1625 8.12875 11.575 9 12 C9.66015625 14.078125 9.66015625 14.078125 10 16 C8.37181054 15.77169299 6.7473651 15.51656424 5.125 15.25 C4.22007812 15.11078125 3.31515625 14.9715625 2.3828125 14.828125 C0 14 0 14 -1.3046875 12.14453125 C-2.3217481 9.00764209 -2.2378474 6.2704018 -2 3 C-1.34 2.01 -0.68 1.02 0 0 Z " fill="#07A0F5" transform="translate(250,183)"/>
<path d="M0 0 C0.99 0 1.98 0 3 0 C3 0.66 3 1.32 3 2 C3.66 2 4.32 2 5 2 C5.06058594 2.68707031 5.12117188 3.37414062 5.18359375 4.08203125 C5.26738281 4.98308594 5.35117187 5.88414062 5.4375 6.8125 C5.51871094 7.70582031 5.59992188 8.59914062 5.68359375 9.51953125 C5.93489767 12.12743559 5.93489767 12.12743559 7 15 C5.625 16.5 5.625 16.5 4 18 C3.34 18 2.68 18 2 18 C2 17.01 2 16.02 2 15 C1.01 14.67 0.02 14.34 -1 14 C-1.02694851 12.04174127 -1.04637218 10.08337774 -1.0625 8.125 C-1.07410156 7.03445312 -1.08570313 5.94390625 -1.09765625 4.8203125 C-1 2 -1 2 0 0 Z " fill="#05A0F7" transform="translate(336,175)"/>
<path d="M0 0 C1.32 0.33 2.64 0.66 4 1 C4.19294408 5.82360189 3.75747614 9.49646738 2 14 C0.35 13.01 -1.3 12.02 -3 11 C-3 11.99 -3 12.98 -3 14 C-4.82193842 15.9249647 -6.89235283 17.37535531 -9 19 C-9.66 18.67 -10.32 18.34 -11 18 C-10.60167969 17.50371094 -10.20335937 17.00742188 -9.79296875 16.49609375 C-6.38490461 12.1261429 -4.01896201 8.14835312 -2 3 C-1.34 2.01 -0.68 1.02 0 0 Z " fill="#1F2429" transform="translate(149,133)"/>
<path d="M0 0 C0.66 0.33 1.32 0.66 2 1 C2.625 4.0625 2.625 4.0625 3 7 C0.03 7 -2.94 7 -6 7 C-6.66 5.68 -7.32 4.36 -8 3 C-11.3 3 -14.6 3 -18 3 C-18 3.66 -18 4.32 -18 5 C-18.66 5 -19.32 5 -20 5 C-21.21762731 8.65288193 -21.39075851 11.15754136 -21 15 C-19.54350922 17.3324223 -17.93900636 19.01251848 -16 21 C-18.62791446 20.63752904 -19.77739043 20.23545243 -21.625 18.28125 C-23.28250445 15.53129944 -23.31303482 13.93021544 -23.1875 10.75 C-23.16042969 9.85796875 -23.13335937 8.9659375 -23.10546875 8.046875 C-23.07066406 7.37140625 -23.03585938 6.6959375 -23 6 C-22.34 6 -21.68 6 -21 6 C-21 4.35 -21 2.7 -21 1 C-19.27119018 0.94550162 -17.54187288 0.90698312 -15.8125 0.875 C-14.84957031 0.85179687 -13.88664063 0.82859375 -12.89453125 0.8046875 C-9.84225491 1.01064407 -7.76379914 1.73014634 -5 3 C-4.071875 3.37125 -3.14375 3.7425 -2.1875 4.125 C-1.1046875 4.558125 -1.1046875 4.558125 0 5 C0 3.35 0 1.7 0 0 Z " fill="#4F9FCA" transform="translate(204,170)"/>
<path d="M0 0 C1.51953125 1.30078125 1.51953125 1.30078125 3 3 C2.6875 6.1875 2.6875 6.1875 2 9 C2.66 9.33 3.32 9.66 4 10 C3.34 11.98 2.68 13.96 2 16 C2.66 16.33 3.32 16.66 4 17 C3.67 17.99 3.34 18.98 3 20 C3 20.99 3 21.98 3 23 C2.979375 23.9075 2.95875 24.815 2.9375 25.75 C2.92311685 29.09910847 2.92311685 29.09910847 3.625 32.75 C3.74875 33.8225 3.8725 34.895 4 36 C2 38 2 38 -0.3828125 38.1953125 C-1.74019531 38.16050781 -1.74019531 38.16050781 -3.125 38.125 C-4.03507812 38.10695312 -4.94515625 38.08890625 -5.8828125 38.0703125 C-6.58148438 38.04710937 -7.28015625 38.02390625 -8 38 C-8.495 36.515 -8.495 36.515 -9 35 C-10.485 35.495 -10.485 35.495 -12 36 C-12 35.34 -12 34.68 -12 34 C-10.68 33.34 -9.36 32.68 -8 32 C-8 33.32 -8 34.64 -8 36 C-4.7 36 -1.4 36 2 36 C1.84152588 35.32493408 1.68305176 34.64986816 1.51977539 33.9543457 C0.91569426 30.52081552 0.78399209 27.21572541 0.68359375 23.73046875 C0.66281265 23.04946609 0.64203156 22.36846344 0.62062073 21.66682434 C0.55562122 19.50714492 0.49647288 17.34735154 0.4375 15.1875 C0.3942675 13.71678544 0.35065175 12.24608209 0.30664062 10.77539062 C0.19999141 7.18371283 0.09858651 3.59190918 0 0 Z " fill="#6D6D6D" transform="translate(316,103)"/>
<path d="M0 0 C0.33 0 0.66 0 1 0 C1.02904864 3.91665108 1.04681517 7.8332744 1.0625 11.75 C1.07087891 12.86117187 1.07925781 13.97234375 1.08789062 15.1171875 C1.09111328 16.18710938 1.09433594 17.25703125 1.09765625 18.359375 C1.10289307 19.34389648 1.10812988 20.32841797 1.11352539 21.34277344 C1.01159103 23.72869514 0.68303357 25.72164581 0 28 C-1.32 27.67 -2.64 27.34 -4 27 C-3.6277754 17.60453769 -2.68359037 9.06344673 0 0 Z " fill="#04A1F5" transform="translate(365,179)"/>
<path d="M0 0 C2.95061143 -0.31898502 4.44098326 -0.4433581 6.8125 1.4375 C8.6196735 5.33719019 8.18851908 8.7269009 8 13 C4.7 13 1.4 13 -2 13 C-1.67 12.01 -1.34 11.02 -1 10 C-0.34 9.67 0.32 9.34 1 9 C1.40729228 6.67843403 1.74438677 4.3431213 2 2 C1.34 2 0.68 2 0 2 C0 1.34 0 0.68 0 0 Z " fill="#06A0F5" transform="translate(396,170)"/>
<path d="M0 0 C0.8125 3.125 0.8125 3.125 1 6 C-1.64738916 7.4606285 -2.89448334 8 -6 8 C-6.66 8.66 -7.32 9.32 -8 10 C-10.0625 8.25 -10.0625 8.25 -12 6 C-11.75 3.75 -11.75 3.75 -11 2 C-10.34 2 -9.68 2 -9 2 C-9 1.01 -9 0.02 -9 -1 C-5.41772072 -2.32677011 -3.25207613 -2.02156084 0 0 Z " fill="#212322" transform="translate(227,117)"/>
<path d="M0 0 C0.33 0 0.66 0 1 0 C1 7.26 1 14.52 1 22 C7.93886149 20.85816203 14.4051804 19.44252578 21 17 C21 19 21 19 18.98046875 21.0703125 C15.27563927 23.46898323 12.69695532 23.66028622 8.3125 23.875 C7.63638672 23.92140625 6.96027344 23.9678125 6.26367188 24.015625 C4.30078125 24.1171875 4.30078125 24.1171875 1 24 C-1 22 -1 22 -1.24291992 19.86108398 C-1.23881104 18.99813721 -1.23470215 18.13519043 -1.23046875 17.24609375 C-1.22853516 16.30958984 -1.22660156 15.37308594 -1.22460938 14.40820312 C-1.21236328 13.42787109 -1.20011719 12.44753906 -1.1875 11.4375 C-1.18685547 10.45330078 -1.18621094 9.46910156 -1.18554688 8.45507812 C-1.14017532 1.14017532 -1.14017532 1.14017532 0 0 Z " fill="#0B1D28" transform="translate(111,139)"/>
<path d="M0 0 C1.0013988 3.00419641 1.51421457 5.87709365 2 9 C2.66 9 3.32 9 4 9 C3.67 12.63 3.34 16.26 3 20 C2.67 20 2.34 20 2 20 C1.9175 18.72125 1.835 17.4425 1.75 16.125 C1.54130069 13.94666582 1.54130069 13.94666582 1 12 C-0.92064793 10.4100567 -0.92064793 10.4100567 -3 10 C-4.81115956 11.81115956 -4.38199448 14.61278227 -4.5625 17.0625 C-4.64628906 18.16722656 -4.73007812 19.27195313 -4.81640625 20.41015625 C-4.87699219 21.26480469 -4.93757813 22.11945313 -5 23 C-7.71282754 18.93075869 -7.64082102 15.77913508 -7 11 C-5.45347282 6.58896928 -3.41822572 3.19295583 0 0 Z " fill="#47A8D9" transform="translate(340,166)"/>
<path d="M0 0 C-0.25 1.875 -0.25 1.875 -1 4 C-1.9590625 4.37125 -1.9590625 4.37125 -2.9375 4.75 C-5.14846089 5.7983193 -5.14846089 5.7983193 -5.70703125 7.8984375 C-6.19958578 9.91826542 -6.60494108 11.95886227 -7 14 C-5.68 14 -4.36 14 -3 14 C-3 13.01 -3 12.02 -3 11 C-2.34 11 -1.68 11 -1 11 C-1 9.68 -1 8.36 -1 7 C1.64 6.01 4.28 5.02 7 4 C7 4.66 7 5.32 7 6 C3.53846154 9 3.53846154 9 1 9 C0.34 10.98 -0.32 12.96 -1 15 C-3.97 15 -6.94 15 -10 15 C-9.15239642 9.40581635 -7.44975791 0 0 0 Z " fill="#489FCE" transform="translate(429,171)"/>
<path d="M0 0 C1.90952307 0.59312806 1.90952307 0.59312806 3.91796875 0.5078125 C6.58463542 0.5078125 9.25130208 0.5078125 11.91796875 0.5078125 C12.24796875 1.4978125 12.57796875 2.4878125 12.91796875 3.5078125 C11.06171875 3.476875 11.06171875 3.476875 9.16796875 3.4453125 C6.22138151 3.43490053 3.76734988 3.74067143 0.91796875 4.5078125 C0.25796875 4.1778125 -0.40203125 3.8478125 -1.08203125 3.5078125 C-3.1225813 3.43715633 -5.16537382 3.42359274 -7.20703125 3.4453125 C-8.30273438 3.45433594 -9.3984375 3.46335938 -10.52734375 3.47265625 C-11.79191406 3.49005859 -11.79191406 3.49005859 -13.08203125 3.5078125 C-13.41203125 2.5178125 -13.74203125 1.5278125 -14.08203125 0.5078125 C-8.76533252 -1.52836999 -5.48590467 -1.49186392 0 0 Z " fill="#2D87BB" transform="translate(356.08203125,164.4921875)"/>
<path d="M0 0 C0.33 0.99 0.66 1.98 1 3 C-0.375 4.5 -0.375 4.5 -2 6 C-2.66 6 -3.32 6 -4 6 C-3.62875 6.886875 -3.2575 7.77375 -2.875 8.6875 C-1.85458958 12.55048229 -2.41331259 13.47402798 -4 17 C-4 18.051875 -4 19.10375 -4 20.1875 C-4 21.115625 -4 22.04375 -4 23 C-4.66 23.66 -5.32 24.32 -6 25 C-8.01542209 19.4279507 -8.56300504 14.78707563 -7 9 C-3.50444444 1.75222222 -3.50444444 1.75222222 0 0 Z " fill="#2AA2E5" transform="translate(181,166)"/>
<path d="M0 0 C0.66 0.66 1.32 1.32 2 2 C-1.10268097 3.03422699 -3.68306652 3.27472401 -6.9375 3.5 C-10.41124549 3.74105297 -13.64967234 4.03123055 -17 5 C-18.5638537 9.8870428 -18.5638537 15.1129572 -17 20 C-17.66 20 -18.32 20 -19 20 C-21.21773256 14.78180574 -21.22573422 11.42825156 -20 6 C-17.81781335 2.54487114 -15.50952916 1.70062395 -11.6875 0.75 C-7.7509073 0.02244491 -4.00810233 -0.32719203 0 0 Z " fill="#479FCB" transform="translate(267,177)"/>
<path d="M0 0 C3.28426103 1.05565533 4.57151556 2.61660352 6.25 5.5 C8 9 8 9 8 11 C8.66 11 9.32 11 10 11 C8.67587025 16.88502111 5.3466542 20.96089209 1 25 C0.34 25 -0.32 25 -1 25 C-1 24.34 -1 23.68 -1 23 C-0.34 23 0.32 23 1 23 C1.0825 22.21625 1.165 21.4325 1.25 20.625 C2 18 2 18 4.046875 16.8359375 C5.01367188 16.42214844 5.01367188 16.42214844 6 16 C5.93993922 14.54052295 5.8511311 13.08220728 5.75 11.625 C5.70359375 10.81289062 5.6571875 10.00078125 5.609375 9.1640625 C5.22292075 6.81557017 5.22292075 6.81557017 3 5.875 C2.34 5.58625 1.68 5.2975 1 5 C0.25 2.375 0.25 2.375 0 0 Z " fill="#339CD3" transform="translate(136,128)"/>
<path d="M0 0 C2.1640625 -0.29296875 2.1640625 -0.29296875 4.625 -0.1875 C5.44226563 -0.16042969 6.25953125 -0.13335937 7.1015625 -0.10546875 C8.04128906 -0.05326172 8.04128906 -0.05326172 9 0 C8.50769231 6.4 8.50769231 6.4 5.9375 9.4375 C5.298125 9.953125 4.65875 10.46875 4 11 C3.34 10.67 2.68 10.34 2 10 C2.639375 9.4225 3.27875 8.845 3.9375 8.25 C5.98223868 6.01937599 6.58205199 4.92563609 7 2 C2.05576893 2.86441035 2.05576893 2.86441035 -1.375 6.125 C-3 8 -3 8 -5.17578125 8.2578125 C-7.46290016 8.2506986 -9.71971564 8.17209693 -12 8 C-12.33 7.34 -12.66 6.68 -13 6 C-12.22914063 5.81824219 -11.45828125 5.63648438 -10.6640625 5.44921875 C-9.15972656 5.07216797 -9.15972656 5.07216797 -7.625 4.6875 C-6.62726563 4.44386719 -5.62953125 4.20023438 -4.6015625 3.94921875 C-1.6915014 3.17806142 -1.6915014 3.17806142 0 0 Z " fill="#578EAC" transform="translate(198,186)"/>
<path d="M0 0 C1.98 0.66 3.96 1.32 6 2 C6 2.66 6 3.32 6 4 C6.66 4 7.32 4 8 4 C11.0672793 9.91546722 12.66894684 14.31053162 12 21 C11 24 11 24 10 26 C9.67 26 9.34 26 9 26 C8.99742187 24.92621094 8.99484375 23.85242188 8.9921875 22.74609375 C9.09614288 13.51745711 9.09614288 13.51745711 5.0625 5.5625 C2.30944441 3.05847654 2.30944441 3.05847654 0 2 C0 1.34 0 0.68 0 0 Z " fill="#39A1D8" transform="translate(319,165)"/>
<path d="M0 0 C0.33 0 0.66 0 1 0 C1.33 5.94 1.66 11.88 2 18 C4.31 18 6.62 18 9 18 C9.33 17.67 9.66 17.34 10 17 C11.66617115 16.95936168 13.33388095 16.957279 15 17 C15 16.01 15 15.02 15 14 C17.64 13.67 20.28 13.34 23 13 C20.14991441 16.16972135 17.75510475 17.80816229 13.75 19.25 C12.85796875 19.58515625 11.9659375 19.9203125 11.046875 20.265625 C8 21 8 21 0 21 C0 14.07 0 7.14 0 0 Z " fill="#1A7EB2" transform="translate(112,140)"/>
<path d="M0 0 C2.64 0.33 5.28 0.66 8 1 C7.47755558 4.76159981 6.7772785 7.32191002 4 10 C1.3125 10.25 1.3125 10.25 -1 10 C-1 9.34 -1 8.68 -1 8 C0.32 7.67 1.64 7.34 3 7 C3 6.01 3 5.02 3 4 C2.21625 4.20625 1.4325 4.4125 0.625 4.625 C-0.24125 4.74875 -1.1075 4.8725 -2 5 C-2.66 4.34 -3.32 3.68 -4 3 C-3.01 3 -2.02 3 -1 3 C-0.67 2.01 -0.34 1.02 0 0 Z " fill="#2388BE" transform="translate(397,187)"/>
<path d="M0 0 C0.33 0 0.66 0 1 0 C1.07416067 4.64473982 1.12860615 9.28913499 1.16479492 13.93432617 C1.17988094 15.51446536 1.2003525 17.09456269 1.22631836 18.67456055 C1.26271126 20.94590585 1.27972762 23.21669759 1.29296875 25.48828125 C1.30845261 26.19463211 1.32393646 26.90098297 1.33988953 27.6287384 C1.34158031 32.55691778 1.34158031 32.55691778 -0.51831055 34.96948242 C-1.25174683 35.47958862 -1.25174683 35.47958862 -2 36 C-1.86015544 31.49979316 -1.71205005 26.99989394 -1.5625 22.5 C-1.52318359 21.2315625 -1.48386719 19.963125 -1.44335938 18.65625 C-1.23078638 12.37717086 -0.93384411 6.21516419 0 0 Z " fill="#4DACE0" transform="translate(367,171)"/>
<path d="M0 0 C0.33 0 0.66 0 1 0 C1 2.64 1 5.28 1 8 C1.66 8 2.32 8 3 8 C3 8.66 3 9.32 3 10 C6.68766192 11.18005182 10.15110517 11.20993972 14 11 C14.99 10.34 15.98 9.68 17 9 C17 10.32 17 11.64 17 13 C13.68929162 14.00109515 10.69915231 14.10356134 7.25 14.0625 C6.26515625 14.05347656 5.2803125 14.04445312 4.265625 14.03515625 C3.51796875 14.02355469 2.7703125 14.01195312 2 14 C1.67 14.66 1.34 15.32 1 16 C-0.65 16 -2.3 16 -4 16 C-4.66 14.35 -5.32 12.7 -6 11 C-5.01 11.33 -4.02 11.66 -3 12 C-3 12.99 -3 13.98 -3 15 C-1.68 13.68 -0.36 12.36 1 11 C0.67 10.34 0.34 9.68 0 9 C-0.06950541 7.45976004 -0.08452357 5.91665012 -0.0625 4.375 C-0.05347656 3.55773437 -0.04445313 2.74046875 -0.03515625 1.8984375 C-0.02355469 1.27195313 -0.01195312 0.64546875 0 0 Z " fill="#329FDB" transform="translate(341,178)"/>
<path d="M0 0 C4.29 0.66 8.58 1.32 13 2 C12.67 3.32 12.34 4.64 12 6 C10.20866022 6.05391993 8.41686101 6.09275571 6.625 6.125 C5.62726563 6.14820313 4.62953125 6.17140625 3.6015625 6.1953125 C1 6 1 6 -1 4 C-0.67 2.68 -0.34 1.36 0 0 Z " fill="#089FF4" transform="translate(343,191)"/>
<path d="M0 0 C1.36125 0.7115625 1.36125 0.7115625 2.75 1.4375 C5.26427949 2.64628821 7.29568209 3.47993886 10 4 C9.75 6.375 9.75 6.375 9 9 C6.72245484 10.57246993 5.45291196 11.03349265 2.67578125 10.828125 C1.89589844 10.63734375 1.11601562 10.4465625 0.3125 10.25 C-0.47511719 10.06953125 -1.26273438 9.8890625 -2.07421875 9.703125 C-4 9 -4 9 -5 7 C-1.53058454 7.45822468 1.67395049 7.89131683 5 9 C4.21894832 5.91148898 4.21894832 5.91148898 1.9375 3.9375 C1.298125 3.298125 0.65875 2.65875 0 2 C0 1.34 0 0.68 0 0 Z " fill="#3EA7E2" transform="translate(255,190)"/>
<path d="M0 0 C0.66 0 1.32 0 2 0 C2.66 4.95 3.32 9.9 4 15 C4.66 15 5.32 15 6 15 C8.125 16.875 8.125 16.875 10 19 C10 19.66 10 20.32 10 21 C11.65 21 13.3 21 15 21 C15.33 21.66 15.66 22.32 16 23 C9.375 22.25 9.375 22.25 6 20 C6 19.34 6 18.68 6 18 C5.34 18 4.68 18 4 18 C0.28392452 11.72912263 -0.53449652 7.24539726 0 0 Z " fill="#56AAD6" transform="translate(295,177)"/>
<path d="M0 0 C2.97 0 5.94 0 9 0 C9 0.99 9 1.98 9 3 C7.68 3.33 6.36 3.66 5 4 C5 4.66 5 5.32 5 6 C2.36 6.33 -0.28 6.66 -3 7 C-3.33 5.68 -3.66 4.36 -4 3 C-3.01 3 -2.02 3 -1 3 C-0.67 2.01 -0.34 1.02 0 0 Z " fill="#139EEC" transform="translate(391,191)"/>
<path d="M0 0 C1 3 1 3 0.5 4.875 C-0.1206595 7.51280286 0.34952865 9.3981146 1 12 C3.97 12.99 6.94 13.98 10 15 C10 15.33 10 15.66 10 16 C6.7 16.66 3.4 17.32 0 18 C0 16.68 0 15.36 0 14 C-0.66 13.67 -1.32 13.34 -2 13 C-2 9.37 -2 5.74 -2 2 C-1.34 2 -0.68 2 0 2 C0 1.34 0 0.68 0 0 Z " fill="#369ED6" transform="translate(304,176)"/>
<path d="M0 0 C1.68222656 -0.05607422 1.68222656 -0.05607422 3.3984375 -0.11328125 C7.2419892 0.39391867 8.8515816 1.67931062 11.625 4.3125 C10.965 4.9725 10.305 5.6325 9.625 6.3125 C8.635 5.6525 7.645 4.9925 6.625 4.3125 C4.46577205 4.0676391 2.29586618 3.91028676 0.125 3.8125 C-6.04166667 3.53472222 -6.04166667 3.53472222 -9.375 1.3125 C-6.08407406 0.21552469 -3.46387841 0.0753017 0 0 Z " fill="#2C759D" transform="translate(262.375,163.6875)"/>
<path d="M0 0 C0.45890625 0.34933594 0.9178125 0.69867188 1.390625 1.05859375 C2.00421875 1.51363281 2.6178125 1.96867188 3.25 2.4375 C3.85328125 2.88996094 4.4565625 3.34242188 5.078125 3.80859375 C9.14859649 6.33195514 13.04230853 6.10957691 17.75 6.0625 C18.92046875 6.05347656 20.0909375 6.04445312 21.296875 6.03515625 C22.18890625 6.02355469 23.0809375 6.01195312 24 6 C23 8 23 8 21.21484375 8.73828125 C15.28546957 10.23333786 11.35080135 10.05119071 6 7 C3.74336176 5.46028948 1.97362842 3.92428771 0 2 C0 1.34 0 0.68 0 0 Z " fill="#4CA4D2" transform="translate(375,191)"/>
<path d="M0 0 C1.50433594 0.01353516 1.50433594 0.01353516 3.0390625 0.02734375 C3.80992187 0.03894531 4.58078125 0.05054688 5.375 0.0625 C5.375 0.7225 5.375 1.3825 5.375 2.0625 C6.365 2.3925 7.355 2.7225 8.375 3.0625 C8.705 6.0325 9.035 9.0025 9.375 12.0625 C7.13862469 9.82612469 6.53652029 7.96630073 5.375 5.0625 C3.38130631 2.62035778 3.38130631 2.62035778 -0.5625 2.875 C-3.30136155 2.90059684 -4.96507532 3.17585844 -7.625 4.0625 C-7.625 3.0725 -7.625 2.0825 -7.625 1.0625 C-4.98041621 -0.25979189 -2.94738699 -0.03427194 0 0 Z " fill="#3999D2" transform="translate(313.625,170.9375)"/>
<path d="M0 0 C0.125 3.375 0.125 3.375 0 7 C-0.66 7.66 -1.32 8.32 -2 9 C-2.66 8.67 -3.32 8.34 -4 8 C-4.33 8.99 -4.66 9.98 -5 11 C-6.65 11.33 -8.3 11.66 -10 12 C-9.625 9.5625 -9.625 9.5625 -9 7 C-8.34 6.67 -7.68 6.34 -7 6 C-7 6.66 -7 7.32 -7 8 C-6.34 8 -5.68 8 -5 8 C-5.061875 7.236875 -5.12375 6.47375 -5.1875 5.6875 C-5 3 -5 3 -3.625 1.1875 C-2 0 -2 0 0 0 Z " fill="#1AA1EA" transform="translate(439,162)"/>
<path d="M0 0 C0.99 0 1.98 0 3 0 C3.33 1.65 3.66 3.3 4 5 C8.29 5.99 12.58 6.98 17 8 C17 7.34 17 6.68 17 6 C19.31 6 21.62 6 24 6 C23 8 23 8 20.375 9.1875 C13.99608019 10.72316588 8.72019884 8.97010324 3 6 C0 2.80645161 0 2.80645161 0 0 Z " fill="#52A6D3" transform="translate(176,191)"/>
<path d="M0 0 C2.60478883 -0.0809313 5.20706653 -0.14045434 7.8125 -0.1875 C8.55048828 -0.21263672 9.28847656 -0.23777344 10.04882812 -0.26367188 C15.54974762 -0.33834499 15.54974762 -0.33834499 18.01171875 1.51171875 C18.50091797 2.24841797 18.50091797 2.24841797 19 3 C17.1875 4.5625 17.1875 4.5625 15 6 C14.01 5.67 13.02 5.34 12 5 C11.67 4.01 11.34 3.02 11 2 C8.02148438 2.09765625 8.02148438 2.09765625 5.04296875 2.1953125 C3 2 3 2 0 0 Z " fill="#20719F" transform="translate(417,151)"/>
<path d="M0 0 C0.66 0 1.32 0 2 0 C2.2475 0.639375 2.495 1.27875 2.75 1.9375 C3.81562433 4.18741541 3.81562433 4.18741541 6.125 4.75 C6.74375 4.8325 7.3625 4.915 8 5 C7.67 5.99 7.34 6.98 7 8 C6.34 7.67 5.68 7.34 5 7 C4.34 10.3 3.68 13.6 3 17 C3.66 17.33 4.32 17.66 5 18 C4.625 20.4375 4.625 20.4375 4 23 C3.34 23.33 2.68 23.66 2 24 C1.97494385 23.41508789 1.9498877 22.83017578 1.92407227 22.22753906 C1.80777038 19.56815529 1.68519933 16.90909597 1.5625 14.25 C1.50352539 12.86941406 1.50352539 12.86941406 1.44335938 11.4609375 C1.40146484 10.57148438 1.35957031 9.68203125 1.31640625 8.765625 C1.27974854 7.94868164 1.24309082 7.13173828 1.20532227 6.29003906 C1.00865725 4.0965577 0.59699406 2.11603587 0 0 Z " fill="#0F9BEB" transform="translate(232,173)"/>
<path d="M0 0 C2.74970798 1.05405472 4.59600505 2.25164004 7 4 C6.67 4.66 6.34 5.32 6 6 C5.52046875 5.69320312 5.0409375 5.38640625 4.546875 5.0703125 C0.87068079 3.5254088 -2.80505902 3.27407363 -6.75 2.875 C-7.93916016 2.74544922 -7.93916016 2.74544922 -9.15234375 2.61328125 C-11.10083141 2.40199946 -13.05032976 2.20007533 -15 2 C-10.3284905 -1.11433967 -5.47108637 -0.60633174 0 0 Z " fill="#2D6D8F" transform="translate(197,164)"/>
<path d="M0 0 C0.66 0 1.32 0 2 0 C4.33991708 3.65612044 4.37437949 6.73207376 4 11 C2.8125 13.875 2.8125 13.875 1 16 C-1.6875 16.8125 -1.6875 16.8125 -4 17 C-4 16.01 -4 15.02 -4 14 C-2.35 14 -0.7 14 1 14 C0.67 9.38 0.34 4.76 0 0 Z " fill="#3EA1D9" transform="translate(135,106)"/>
<path d="M0 0 C0 0.66 0 1.32 0 2 C-1.79036458 2.9765625 -3.58072917 3.953125 -5.37109375 4.9296875 C-7.16618315 5.91410024 -7.16618315 5.91410024 -8 8 C-8.66 8 -9.32 8 -10 8 C-9.67 9.32 -9.34 10.64 -9 12 C-7.35 12.33 -5.7 12.66 -4 13 C-4.33 13.99 -4.66 14.98 -5 16 C-7.97 15.505 -7.97 15.505 -11 15 C-11.91384641 12.53261469 -12.03486045 11.15106194 -11.4375 8.5625 C-9.1635349 4.50891004 -4.9361017 0 0 0 Z " fill="#7E7F7E" transform="translate(293,96)"/>
<path d="M0 0 C0.33 0.66 0.66 1.32 1 2 C0.34 2 -0.32 2 -1 2 C-1.33 3.65 -1.66 5.3 -2 7 C-1.01 7 -0.02 7 1 7 C1 7.99 1 8.98 1 10 C3.31 10 5.62 10 8 10 C8 10.33 8 10.66 8 11 C4 11 0 11 -4 11 C-3.67 9.35 -3.34 7.7 -3 6 C-5.31 5.67 -7.62 5.34 -10 5 C-10 4.67 -10 4.34 -10 4 C-9.0925 3.71125 -8.185 3.4225 -7.25 3.125 C-4.67797092 2.23468224 -2.38653234 1.28505587 0 0 Z " fill="#3E8CB5" transform="translate(268,188)"/>
<path d="M0 0 C0.9796875 -0.01417969 1.959375 -0.02835938 2.96875 -0.04296875 C5.5 0.1875 5.5 0.1875 7.5 2.1875 C6.18 2.1875 4.86 2.1875 3.5 2.1875 C3.17 3.1775 2.84 4.1675 2.5 5.1875 C1.84 5.1875 1.18 5.1875 0.5 5.1875 C0.5 4.5275 0.5 3.8675 0.5 3.1875 C-2.14 3.5175 -4.78 3.8475 -7.5 4.1875 C-7.5 3.1975 -7.5 2.2075 -7.5 1.1875 C-4.89820337 -0.11339831 -2.9030812 0.01909922 0 0 Z " fill="#2277A5" transform="translate(228.5,163.8125)"/>
<path d="M0 0 C4.29 0 8.58 0 13 0 C11.68 0.33 10.36 0.66 9 1 C9 1.99 9 2.98 9 4 C6.59454362 5.20272819 5.05003047 5.10071472 2.375 5.0625 C1.14910156 5.04896484 1.14910156 5.04896484 -0.1015625 5.03515625 C-1.04128906 5.01775391 -1.04128906 5.01775391 -2 5 C-1.01 4.34 -0.02 3.68 1 3 C0.67 2.01 0.34 1.02 0 0 Z " fill="#1AA1EE" transform="translate(344,206)"/>
<path d="M0 0 C1.2065625 0.0309375 1.2065625 0.0309375 2.4375 0.0625 C2.4375 2.7025 2.4375 5.3425 2.4375 8.0625 C0.1275 7.7325 -2.1825 7.4025 -4.5625 7.0625 C-3.5234375 0.0859375 -3.5234375 0.0859375 0 0 Z " fill="#191B1A" transform="translate(348.5625,130.9375)"/>
<path d="M0 0 C0.33 0 0.66 0 1 0 C1 1.98 1 3.96 1 6 C6.28 6 11.56 6 17 6 C14.06552643 8.93447357 10.81740544 8.46158423 6.875 8.625 C6.12089844 8.66367188 5.36679687 8.70234375 4.58984375 8.7421875 C2.72696816 8.83651031 0.86351745 8.91934662 -1 9 C-0.67 6.03 -0.34 3.06 0 0 Z " fill="#149AE4" transform="translate(380,173)"/>
<path d="M0 0 C1.07765625 0.01804687 2.1553125 0.03609375 3.265625 0.0546875 C4.49539062 0.08949219 4.49539062 0.08949219 5.75 0.125 C5.75 0.785 5.75 1.445 5.75 2.125 C1.79 2.125 -2.17 2.125 -6.25 2.125 C-6.25 2.785 -6.25 3.445 -6.25 4.125 C-7.24 4.125 -8.23 4.125 -9.25 4.125 C-9.25 4.785 -9.25 5.445 -9.25 6.125 C-10.9 6.455 -12.55 6.785 -14.25 7.125 C-13.59 6.135 -12.93 5.145 -12.25 4.125 C-11.59 4.125 -10.93 4.125 -10.25 4.125 C-10.25 3.465 -10.25 2.805 -10.25 2.125 C-6.7733662 -0.01836161 -4.03770805 -0.08777626 0 0 Z " fill="#407793" transform="translate(128.25,125.875)"/>
<path d="M0 0 C0.969375 0.474375 1.93875 0.94875 2.9375 1.4375 C7.19836149 3.28852999 11.40015606 3.69751593 16 4 C16 4.66 16 5.32 16 6 C17.32 6.33 18.64 6.66 20 7 C19.67 7.66 19.34 8.32 19 9 C18.113125 8.690625 17.22625 8.38125 16.3125 8.0625 C13.17764977 6.976365 13.17764977 6.976365 10.5625 6.5625 C7.11604525 5.80596115 4.15184095 4.57592048 1 3 C0.67 2.01 0.34 1.02 0 0 Z " fill="#777878" transform="translate(196,117)"/>
<path d="M0 0 C2.64 0 5.28 0 8 0 C8.33 0.99 8.66 1.98 9 3 C11.67643957 3.89214652 13.25384378 4.13540211 16 4.125 C17.0209375 4.12886719 17.0209375 4.12886719 18.0625 4.1328125 C20.21874781 4.06631126 20.21874781 4.06631126 23 3 C23.33 3.99 23.66 4.98 24 6 C21.54159395 6.02691685 19.08348118 6.04679802 16.625 6.0625 C15.92632812 6.07087891 15.22765625 6.07925781 14.5078125 6.08789062 C9.2265625 6.11328125 9.2265625 6.11328125 7 5 C6.67 4.01 6.34 3.02 6 2 C3.03 1.505 3.03 1.505 0 1 C0 0.67 0 0.34 0 0 Z " fill="#346884" transform="translate(335,200)"/>
<path d="M0 0 C0.33 0 0.66 0 1 0 C1.33 2.97 1.66 5.94 2 9 C3.65 9.33 5.3 9.66 7 10 C7.33 10.99 7.66 11.98 8 13 C6.625 14.5 6.625 14.5 5 16 C4.34 16 3.68 16 3 16 C3 15.01 3 14.02 3 13 C2.01 12.67 1.02 12.34 0 12 C0 8.04 0 4.08 0 0 Z " fill="#0C9DEF" transform="translate(335,177)"/>
<path d="M0 0 C0.33 0.99 0.66 1.98 1 3 C2.299375 3.12375 3.59875 3.2475 4.9375 3.375 C7.15234375 3.5859375 7.15234375 3.5859375 9 4 C10.60725635 7.21451269 10.05748185 10.43612536 10 14 C9.01 14.495 9.01 14.495 8 15 C8 12.03 8 9.06 8 6 C7.071875 6.061875 6.14375 6.12375 5.1875 6.1875 C2 6 2 6 0.125 4.5 C-0.24625 4.005 -0.6175 3.51 -1 3 C-0.67 2.01 -0.34 1.02 0 0 Z " fill="#828382" transform="translate(343,125)"/>
<path d="M0 0 C2.49118953 3.7367843 2.2065226 5.74451819 2.125 10.1875 C2.10695313 11.45980469 2.08890625 12.73210937 2.0703125 14.04296875 C2.03550781 15.50669922 2.03550781 15.50669922 2 17 C2.66 17.33 3.32 17.66 4 18 C3.01 18.33 2.02 18.66 1 19 C0.67 19.66 0.34 20.32 0 21 C0 14.07 0 7.14 0 0 Z " fill="#B3B3B3" transform="translate(370,81)"/>
<path d="M0 0 C4.875 0.875 4.875 0.875 6 2 C7.76853292 2.09938863 9.54118275 2.12969223 11.3125 2.125 C12.76076172 2.12886719 12.76076172 2.12886719 14.23828125 2.1328125 C16.66143705 2.01628167 18.68644969 1.69241648 21 1 C17.27711179 4.8921104 17.27711179 4.8921104 14.01171875 5.16796875 C9.54865688 5.20547347 6.06256295 5.09680669 2 3 C2 2.34 2 1.68 2 1 C1.34 0.67 0.68 0.34 0 0 Z " fill="#66ACD3" transform="translate(338,194)"/>
<path d="M0 0 C1.32 0 2.64 0 4 0 C2.48513355 3.85602368 0.48021573 5.7785857 -3 8 C-5.96811448 8.8864503 -8.94567295 9.49427265 -12 10 C-12 9.34 -12 8.68 -12 8 C-10.865625 7.71125 -9.73125 7.4225 -8.5625 7.125 C-7.386875 6.75375 -6.21125 6.3825 -5 6 C-4.67 5.34 -4.34 4.68 -4 4 C-2.68 4 -1.36 4 0 4 C0 2.68 0 1.36 0 0 Z " fill="#4DA4D5" transform="translate(324,191)"/>
<path d="M0 0 C13.66563608 -0.92474229 13.66563608 -0.92474229 18.69921875 3.421875 C20.88987853 6.07961239 21.91367174 8.74101521 23 12 C22.34 12 21.68 12 21 12 C17 6.58823529 17 6.58823529 17 4 C11.43930418 1.74566386 5.9214349 1.40038172 0 1 C0 0.67 0 0.34 0 0 Z " fill="#396279" transform="translate(383,164)"/>
<path d="M0 0 C0.66 0 1.32 0 2 0 C2.33 2.64 2.66 5.28 3 8 C1.02 8 -0.96 8 -3 8 C-3 6.02 -3 4.04 -3 2 C-2.01 2 -1.02 2 0 2 C0 1.34 0 0.68 0 0 Z " fill="#079EF3" transform="translate(414,157)"/>
<path d="M0 0 C0.99 0.99 1.98 1.98 3 3 C0.03 3.66 -2.94 4.32 -6 5 C-6.99 8.96 -7.98 12.92 -9 17 C-11 14 -11 14 -10.4375 10.625 C-8.55845162 5.88653017 -6.1142459 3.1999774 -1.6875 0.6875 C-1.130625 0.460625 -0.57375 0.23375 0 0 Z " fill="#848686" transform="translate(96,101)"/>
<path d="M0 0 C0.66 0.66 1.32 1.32 2 2 C1.625 4.125 1.625 4.125 1 6 C-3.04141194 6.63394697 -6.9065307 7.12404452 -11 7 C-10.67 6.01 -10.34 5.02 -10 4 C-7.03 4 -4.06 4 -1 4 C-0.67 2.68 -0.34 1.36 0 0 Z " fill="#606060" transform="translate(370,134)"/>
<path d="M0 0 C1.65 0.33 3.3 0.66 5 1 C5 1.99 5 2.98 5 4 C4.01 4 3.02 4 2 4 C2 4.66 2 5.32 2 6 C3.32 6.33 4.64 6.66 6 7 C2.18510326 8.46726798 -0.29011622 7.43336419 -4 6 C-4 5.34 -4 4.68 -4 4 C-2.68 3.67 -1.36 3.34 0 3 C0 2.01 0 1.02 0 0 Z " fill="#0E9CED" transform="translate(309,192)"/>
<path d="M0 0 C0.66 0.66 1.32 1.32 2 2 C-1.61867559 3.2062252 -4.92506251 3.10816918 -8.6875 3.0625 C-9.38939453 3.05798828 -10.09128906 3.05347656 -10.81445312 3.04882812 C-12.54300538 3.03706927 -14.27151365 3.01913454 -16 3 C-16 2.67 -16 2.34 -16 2 C-10.61328355 0.63194503 -5.60317836 -0.45740231 0 0 Z " fill="#347197" transform="translate(267,177)"/>
<path d="M0 0 C2.97 0.495 2.97 0.495 6 1 C6.042721 2.66611905 6.04063832 4.33382885 6 6 C5 7 5 7 1.62109375 7.09765625 C0.22652923 7.09098369 -1.16801743 7.07902532 -2.5625 7.0625 C-3.27341797 7.05798828 -3.98433594 7.05347656 -4.71679688 7.04882812 C-6.47790013 7.03700864 -8.23896036 7.01907263 -10 7 C-10 6.67 -10 6.34 -10 6 C-5.38 6 -0.76 6 4 6 C3.0022242 3.00667261 2.2477975 2.05233685 0 0 Z " fill="#316D8E" transform="translate(392,171)"/>
<path d="M0 0 C0.33 0.66 0.66 1.32 1 2 C-1.90511754 4.82179677 -3.46544831 5.94119343 -7.55078125 6.390625 C-8.79214844 6.34421875 -10.03351563 6.2978125 -11.3125 6.25 C-13.19388672 6.19585937 -13.19388672 6.19585937 -15.11328125 6.140625 C-16.06589844 6.09421875 -17.01851563 6.0478125 -18 6 C-18 5.67 -18 5.34 -18 5 C-17.3709375 4.89042969 -16.741875 4.78085938 -16.09375 4.66796875 C-10.43376318 3.61950734 -5.3305114 2.17168983 0 0 Z " fill="#092D3C" transform="translate(131,156)"/>
<path d="M0 0 C1.2065625 0.0309375 1.2065625 0.0309375 2.4375 0.0625 C1.880625 0.475 1.32375 0.8875 0.75 1.3125 C-0.3946875 2.17875 -0.3946875 2.17875 -1.5625 3.0625 C-2.449375 3.5575 -3.33625 4.0525 -4.25 4.5625 C-7.48032021 8.05473806 -7.2076695 11.06791971 -7.32421875 15.69921875 C-7.40285156 16.47910156 -7.48148438 17.25898437 -7.5625 18.0625 C-8.2225 18.3925 -8.8825 18.7225 -9.5625 19.0625 C-9.37533521 7.44126826 -9.37533521 7.44126826 -7.41796875 4.12109375 C-6.0625 2.8125 -6.0625 2.8125 -3.5625 1.0625 C-2.5625 0.0625 -2.5625 0.0625 0 0 Z " fill="#7A7B7B" transform="translate(202.5625,96.9375)"/>
<path d="M0 0 C1.32 0.33 2.64 0.66 4 1 C4 3.31 4 5.62 4 8 C3.01 8.33 2.02 8.66 1 9 C-0.4783226 6.04335481 -0.06032783 3.25770263 0 0 Z " fill="#1B1D18" transform="translate(149,133)"/>
<path d="M0 0 C2.97 0 5.94 0 9 0 C9 0.66 9 1.32 9 2 C9.99 2.33 10.98 2.66 12 3 C7.38 3 2.76 3 -2 3 C-1.34 2.67 -0.68 2.34 0 2 C0 1.34 0 0.68 0 0 Z " fill="#626262" transform="translate(107,68)"/>
<path d="M0 0 C0.66 0 1.32 0 2 0 C3 1 4 2 5 3 C7.09989652 4.17574711 7.09989652 4.17574711 9 5 C9 5.66 9 6.32 9 7 C7.35 7 5.7 7 4 7 C4 6.34 4 5.68 4 5 C2.68 4.67 1.36 4.34 0 4 C0 2.68 0 1.36 0 0 Z " fill="#388CBC" transform="translate(381,187)"/>
<path d="M0 0 C2.97 0.495 2.97 0.495 6 1 C7.07310858 4.27185553 6.89263102 6.42947592 6.0625 9.75 C5.86785156 10.54921875 5.67320312 11.3484375 5.47265625 12.171875 C5.23869141 13.07679688 5.23869141 13.07679688 5 14 C4.34 13.67 3.68 13.34 3 13 C3.2475 11.96875 3.495 10.9375 3.75 9.875 C4.05306524 5.17748885 2.89158993 3.59258142 0 0 Z " fill="#47A4D5" transform="translate(355,173)"/>
<path d="M0 0 C-0.33 1.32 -0.66 2.64 -1 4 C-3.97 4 -6.94 4 -10 4 C-10.33 3.34 -10.66 2.68 -11 2 C-9.5422647 1.664061 -8.08378894 1.33133376 -6.625 1 C-5.40683594 0.7215625 -5.40683594 0.7215625 -4.1640625 0.4375 C-2 0 -2 0 0 0 Z " fill="#2B87BF" transform="translate(196,190)"/>
<path d="M0 0 C0 0.66 0 1.32 0 2 C0.66 2.33 1.32 2.66 2 3 C0.68 3.33 -0.64 3.66 -2 4 C-2 3.34 -2 2.68 -2 2 C-4.64 2.66 -7.28 3.32 -10 4 C-9.25 2.0625 -9.25 2.0625 -8 0 C-5.05360248 -1.27677226 -3.00864103 -0.96706319 0 0 Z " fill="#377497" transform="translate(428,188)"/>
<path d="M0 0 C0.66 0 1.32 0 2 0 C2 0.66 2 1.32 2 2 C2.66 2.33 3.32 2.66 4 3 C3.67 3.66 3.34 4.32 3 5 C3 6.32 3 7.64 3 9 C2.01 9.33 1.02 9.66 0 10 C-1.125 3.375 -1.125 3.375 0 0 Z " fill="#12A3F4" transform="translate(341,166)"/>
<path d="M0 0 C-1.65 0.66 -3.3 1.32 -5 2 C-5 2.66 -5 3.32 -5 4 C-6.65 3.67 -8.3 3.34 -10 3 C-9.3125 1.0625 -9.3125 1.0625 -8 -1 C-4.19973591 -2.36419737 -3.46462908 -2.30975272 0 0 Z " fill="#059FF4" transform="translate(262,169)"/>
<path d="M0 0 C0.33 0.99 0.66 1.98 1 3 C0.01 4.485 0.01 4.485 -1 6 C-1.66 6 -2.32 6 -3 6 C-3 6.66 -3 7.32 -3 8 C-6.3 7.67 -9.6 7.34 -13 7 C-12.67 6.34 -12.34 5.68 -12 5 C-10.948125 5.103125 -9.89625 5.20625 -8.8125 5.3125 C-4.84478007 5.36068704 -4.84478007 5.36068704 -2.0625 2.5 C-1.381875 1.675 -0.70125 0.85 0 0 Z " fill="#7A7B7B" transform="translate(306,124)"/>
<path d="M0 0 C0.66 0.33 1.32 0.66 2 1 C1.34 2.65 0.68 4.3 0 6 C2.97 6.495 2.97 6.495 6 7 C6 7.66 6 8.32 6 9 C3.69 9.33 1.38 9.66 -1 10 C-1.9765625 3.9453125 -1.9765625 3.9453125 -2 2 C-1.34 1.34 -0.68 0.68 0 0 Z " fill="#7A7B7A" transform="translate(248,123)"/>
<path d="M0 0 C1.25541557 3.76624671 0.37061958 5.37188934 -1 9 C-3.97 9 -6.94 9 -10 9 C-8.0030739 7.43098663 -6.20618137 6.09096237 -3.875 5.0625 C-1.54382346 3.74149996 -0.97851824 2.44629561 0 0 Z " fill="#5FAEDD" transform="translate(321,184)"/>
<path d="M0 0 C1.32 0.33 2.64 0.66 4 1 C3.01 1.66 2.02 2.32 1 3 C0.67 3.99 0.34 4.98 0 6 C-1.98 6 -3.96 6 -6 6 C-6 3 -6 3 -4 1 C-1.875 1.375 -1.875 1.375 0 2 C0 1.34 0 0.68 0 0 Z " fill="#52ACDB" transform="translate(257,171)"/>
<path d="M0 0 C0 0.66 0 1.32 0 2 C-3.75 3.125 -3.75 3.125 -6 2 C-6 1.34 -6 0.68 -6 0 C-8.97 0 -11.94 0 -15 0 C-15 -0.33 -15 -0.66 -15 -1 C-13.06403108 -1.22211116 -11.12610672 -1.42722992 -9.1875 -1.625 C-8.10855469 -1.74101563 -7.02960938 -1.85703125 -5.91796875 -1.9765625 C-3 -2 -3 -2 0 0 Z " fill="#1F9AE0" transform="translate(137,129)"/>
<path d="M0 0 C0.33 0 0.66 0 1 0 C1.06058594 0.71027344 1.12117188 1.42054687 1.18359375 2.15234375 C1.26738281 3.07144531 1.35117187 3.99054688 1.4375 4.9375 C1.51871094 5.85402344 1.59992188 6.77054688 1.68359375 7.71484375 C1.76044976 9.96159732 1.76044976 9.96159732 3 11 C5.32817964 11.36760731 7.6618385 11.70241581 10 12 C9.67 12.99 9.34 13.98 9 15 C8.67 14.34 8.34 13.68 8 13 C5.36 13 2.72 13 0 13 C0 8.71 0 4.42 0 0 Z " fill="#2A2A2A" transform="translate(387,126)"/>
<path d="M0 0 C3.3 0 6.6 0 10 0 C10 0.33 10 0.66 10 1 C8.576875 1.12375 8.576875 1.12375 7.125 1.25 C3.89538209 1.65074923 3.89538209 1.65074923 2.625 4.0625 C2.41875 4.701875 2.2125 5.34125 2 6 C0.68 5.34 -0.64 4.68 -2 4 C-1.34 2.68 -0.68 1.36 0 0 Z " fill="#161716" transform="translate(295,97)"/>
<path d="M0 0 C2.97 0.99 5.94 1.98 9 3 C9 3.33 9 3.66 9 4 C5.7 4.66 2.4 5.32 -1 6 C-0.67 4.02 -0.34 2.04 0 0 Z " fill="#267EAD" transform="translate(305,188)"/>
<path d="M0 0 C0.33 1.32 0.66 2.64 1 4 C-2.12180401 4.96661363 -4.52083795 4.98988909 -7.75 4.5625 C-8.94882812 4.40974609 -8.94882812 4.40974609 -10.171875 4.25390625 C-10.77515625 4.17011719 -11.3784375 4.08632812 -12 4 C-12.33 3.01 -12.66 2.02 -13 1 C-12.484375 1.165 -11.96875 1.33 -11.4375 1.5 C-8.22317332 2.15934906 -5.27153915 2.18175217 -2 2 C-1.34 1.34 -0.68 0.68 0 0 Z " fill="#366F8C" transform="translate(357,187)"/>
<path d="M0 0 C2 2 2 2 2.25 5.8125 C2.17480324 9.25275166 1.55549361 11.88901279 0 15 C-0.33 15 -0.66 15 -1 15 C-0.67 10.05 -0.34 5.1 0 0 Z " fill="#61B5E3" transform="translate(329,176)"/>
<path d="M0 0 C-0.25 1.875 -0.25 1.875 -1 4 C-2.33333333 4.66666667 -3.66666667 5.33333333 -5 6 C-5.80528889 8.05000871 -5.80528889 8.05000871 -6 10 C-6.66 9.67 -7.32 9.34 -8 9 C-6.68994234 5.06982701 -4.75047804 0 0 0 Z " fill="#3588B6" transform="translate(429,171)"/>
<path d="M0 0 C0.56203125 0.22171875 1.1240625 0.4434375 1.703125 0.671875 C-0.08778258 1.8188944 -1.87962497 2.96445435 -3.671875 4.109375 C-5.16847656 5.06650391 -5.16847656 5.06650391 -6.6953125 6.04296875 C-9.296875 7.671875 -9.296875 7.671875 -11.296875 8.671875 C-11.296875 7.681875 -11.296875 6.691875 -11.296875 5.671875 C-9.46875 4.03125 -9.46875 4.03125 -7.046875 2.421875 C-5.86351563 1.60976562 -5.86351563 1.60976562 -4.65625 0.78125 C-2.296875 -0.328125 -2.296875 -0.328125 0 0 Z " fill="#565656" transform="translate(88.296875,75.328125)"/>
<path d="M0 0 C1.4540625 0.0309375 1.4540625 0.0309375 2.9375 0.0625 C4.46916168 4.14693115 3.56831652 7.85705657 2.9375 12.0625 C2.6075 12.0625 2.2775 12.0625 1.9375 12.0625 C1.6075 8.7625 1.2775 5.4625 0.9375 2.0625 C-0.0525 2.3925 -1.0425 2.7225 -2.0625 3.0625 C-2.7225 2.4025 -3.3825 1.7425 -4.0625 1.0625 C-3.0625 0.0625 -3.0625 0.0625 0 0 Z " fill="#1999DE" transform="translate(364.0625,166.9375)"/>
<path d="M0 0 C2.31 0 4.62 0 7 0 C7 0.66 7 1.32 7 2 C7.66 2.33 8.32 2.66 9 3 C5.67465243 4.10844919 3.37817425 3.84454356 0 3 C0 2.01 0 1.02 0 0 Z " fill="#07A0F7" transform="translate(421,153)"/>
<path d="M0 0 C0.99 0.33 1.98 0.66 3 1 C3.08159574 5.16138263 2.98248524 8.9472484 2 13 C1.67 13 1.34 13 1 13 C-1.42857143 4.57142857 -1.42857143 4.57142857 0 0 Z " fill="#161817" transform="translate(150,111)"/>
<path d="M0 0 C1.9375 0.625 1.9375 0.625 4 2 C4.75 5.125 4.75 5.125 5 8 C3.02 8 1.04 8 -1 8 C-0.125 4.125 -0.125 4.125 1 3 C0.67 2.01 0.34 1.02 0 0 Z " fill="#4B4C4C" transform="translate(393,101)"/>
<path d="M0 0 C0.33 0.99 0.66 1.98 1 3 C-0.375 4.5 -0.375 4.5 -2 6 C-2.66 6 -3.32 6 -4 6 C-4.33 7.32 -4.66 8.64 -5 10 C-5.66 9.67 -6.32 9.34 -7 9 C-6.21448343 7.68381002 -5.4213763 6.37214772 -4.625 5.0625 C-4.18414062 4.33160156 -3.74328125 3.60070312 -3.2890625 2.84765625 C-2 1 -2 1 0 0 Z " fill="#4387A9" transform="translate(181,166)"/>
<path d="M0 0 C4.66154042 1.49835228 5.86610751 4.88463591 8 9 C7.01 9.495 7.01 9.495 6 10 C5.67 9.01 5.34 8.02 5 7 C4.34 6.71125 3.68 6.4225 3 6.125 C1 5 1 5 0.25 2.375 C0.1675 1.59125 0.085 0.8075 0 0 Z " fill="#478CB0" transform="translate(136,128)"/>
<path d="M0 0 C0.99 0.33 1.98 0.66 3 1 C2.34 2.32 1.68 3.64 1 5 C2.32 5 3.64 5 5 5 C5 5.99 5 6.98 5 8 C3.02 7.34 1.04 6.68 -1 6 C-1.042721 4.33388095 -1.04063832 2.66617115 -1 1 C-0.67 0.67 -0.34 0.34 0 0 Z " fill="#858685" transform="translate(206,106)"/>
<path d="M0 0 C3.36179774 1.44077046 5.59156268 3.24750021 8 6 C8 6.66 8 7.32 8 8 C8.66 8 9.32 8 10 8 C10.33 9.32 10.66 10.64 11 12 C10.34 11.67 9.68 11.34 9 11 C9 10.34 9 9.68 9 9 C8.34 9 7.68 9 7 9 C5.65080468 7.34614767 4.31866272 5.678298 3 4 C2.01 3.34 1.02 2.68 0 2 C0 1.34 0 0.68 0 0 Z " fill="#5B5C5B" transform="translate(145,81)"/>
<path d="M0 0 C0.66 0.33 1.32 0.66 2 1 C1.6875 4.375 1.6875 4.375 1 8 C0.01 8.66 -0.98 9.32 -2 10 C-2.25 3.375 -2.25 3.375 0 0 Z " fill="#099EF2" transform="translate(250,183)"/>
<path d="M0 0 C2.475 0.495 2.475 0.495 5 1 C5.33 3.97 5.66 6.94 6 10 C3.75421292 7.75421292 3.14349581 5.930208 2 3 C1.34 2.01 0.68 1.02 0 0 Z " fill="#5DB1DB" transform="translate(317,173)"/>
<path d="M0 0 C0 0.33 0 0.66 0 1 C-1.58294782 1.05437607 -3.16644256 1.09296271 -4.75 1.125 C-5.63171875 1.14820313 -6.5134375 1.17140625 -7.421875 1.1953125 C-10.1135858 0.99139502 -11.69904974 0.36551721 -14 -1 C-9.04653013 -2.59789351 -4.86717585 -1.28306814 0 0 Z " fill="#265C7C" transform="translate(358,165)"/>
<path d="M0 0 C1.8871875 0.061875 1.8871875 0.061875 3.8125 0.125 C4.1425 1.115 4.4725 2.105 4.8125 3.125 C0.8525 2.795 -3.1075 2.465 -7.1875 2.125 C-4.09861478 0.06574319 -3.47814073 -0.1140374 0 0 Z " fill="#444545" transform="translate(346.1875,137.875)"/>
<path d="M0 0 C1.65 0.33 3.3 0.66 5 1 C5.33 2.32 5.66 3.64 6 5 C4.35 4.67 2.7 4.34 1 4 C0.67 4.99 0.34 5.98 0 7 C-1.04449911 3.86650268 -0.93423645 3.01031744 0 0 Z " fill="#55595F" transform="translate(148,129)"/>
<path d="M0 0 C0.66 0 1.32 0 2 0 C2.29296875 5.95703125 2.29296875 5.95703125 2 8 C1.01 8.99 0.02 9.98 -1 11 C-0.67 7.37 -0.34 3.74 0 0 Z " fill="#5BB1E1" transform="translate(366,196)"/>
<path d="M0 0 C-0.50603992 2.16874252 -0.99983813 3.99967627 -2 6 C-2.99 6 -3.98 6 -5 6 C-5.33 5.01 -5.66 4.02 -6 3 C-4.60722783 0.21445565 -3.01148006 0 0 0 Z " fill="#35A3E1" transform="translate(440,169)"/>
<path d="M0 0 C0.99 0.33 1.98 0.66 3 1 C0.42215154 3.64752004 -1.91648098 5.94432065 -5 8 C-4.66275164 4.88045262 -4.3790035 3.3790035 -2.125 1.125 C-1.42375 0.75375 -0.7225 0.3825 0 0 Z " fill="#3781AC" transform="translate(304,165)"/>
<path d="M0 0 C2.31 0.66 4.62 1.32 7 2 C6.67 2.99 6.34 3.98 6 5 C3.03 4.505 3.03 4.505 0 4 C0 2.68 0 1.36 0 0 Z " fill="#5A5C5A" transform="translate(282,107)"/>
<path d="M0 0 C0.33 0 0.66 0 1 0 C1.14285714 8.57142857 1.14285714 8.57142857 0 12 C0.66 12.33 1.32 12.66 2 13 C1.34 13 0.68 13 0 13 C-0.33 13.99 -0.66 14.98 -1 16 C-2.03038433 12.0585998 -1.87693282 9.16384848 -1.0625 5.1875 C-0.86785156 4.21167969 -0.67320312 3.23585937 -0.47265625 2.23046875 C-0.31667969 1.49441406 -0.16070312 0.75835937 0 0 Z " fill="#0E9CED" transform="translate(361,194)"/>
<path d="M0 0 C1.98 0.66 3.96 1.32 6 2 C6 2.66 6 3.32 6 4 C6.66 4.33 7.32 4.66 8 5 C7.34 5.66 6.68 6.32 6 7 C3.95880212 5.38405168 1.95927063 3.7143618 0 2 C0 1.34 0 0.68 0 0 Z " fill="#4384A3" transform="translate(319,165)"/>
<path d="M0 0 C0.99 0.33 1.98 0.66 3 1 C3.125 7.625 3.125 7.625 2 11 C1.34 11 0.68 11 0 11 C-0.33 9.68 -0.66 8.36 -1 7 C-0.01 6.67 0.98 6.34 2 6 C1.34 4.02 0.68 2.04 0 0 Z " fill="#656666" transform="translate(304,106)"/>
<path d="M0 0 C3.75 1.375 3.75 1.375 7 3 C7 3.66 7 4.32 7 5 C3.37 4.01 -0.26 3.02 -4 2 C-2.68 1.34 -1.36 0.68 0 0 Z " fill="#6C6C6C" transform="translate(127,70)"/>
<path d="M0 0 C-0.33 1.32 -0.66 2.64 -1 4 C-3.31 4.66 -5.62 5.32 -8 6 C-3.38461538 0 -3.38461538 0 0 0 Z " fill="#4587A6" transform="translate(383,165)"/>
<path d="M0 0 C0.33 1.32 0.66 2.64 1 4 C0.360625 4.268125 -0.27875 4.53625 -0.9375 4.8125 C-3.33131686 5.88667752 -3.33131686 5.88667752 -4 9 C-4.33 8.34 -4.66 7.68 -5 7 C-1.125 1.125 -1.125 1.125 0 0 Z " fill="#5D5E5D" transform="translate(71,88)"/>
<path d="M0 0 C2.97 0.495 2.97 0.495 6 1 C5.67 2.32 5.34 3.64 5 5 C3.68 4.67 2.36 4.34 1 4 C1.33 3.34 1.66 2.68 2 2 C1.34 1.34 0.68 0.68 0 0 Z " fill="#1A1E22" transform="translate(121,161)"/>
<path d="M0 0 C0.99 0.33 1.98 0.66 3 1 C3.33 1.99 3.66 2.98 4 4 C2.68 4 1.36 4 0 4 C-0.33 4.99 -0.66 5.98 -1 7 C-1.33 5.02 -1.66 3.04 -2 1 C-1.34 0.67 -0.68 0.34 0 0 Z " fill="#1D1E1E" transform="translate(211,129)"/>
<path d="M0 0 C-0.33 1.32 -0.66 2.64 -1 4 C-2.32 4.33 -3.64 4.66 -5 5 C-5.66 3.68 -6.32 2.36 -7 1 C-2.25 0 -2.25 0 0 0 Z " fill="#1B1B1B" transform="translate(244,117)"/>
<path d="M0 0 C0 0.99 0 1.98 0 3 C-2.64 3.66 -5.28 4.32 -8 5 C-7.67 4.01 -7.34 3.02 -7 2 C-3.4375 0.8125 -3.4375 0.8125 0 0 Z " fill="#787A7A" transform="translate(99,70)"/>
<path d="M0 0 C1.32 0 2.64 0 4 0 C2.52307692 5.66153846 2.52307692 5.66153846 -0.125 7.375 C-1.053125 7.684375 -1.053125 7.684375 -2 8 C-1.34 7.01 -0.68 6.02 0 5 C0.16713569 2.37468476 0.16713569 2.37468476 0 0 Z " fill="#5DADD2" transform="translate(401,189)"/>
<path d="M0 0 C2.31 0.33 4.62 0.66 7 1 C7.33 2.32 7.66 3.64 8 5 C2.25 3.375 2.25 3.375 0 0 Z " fill="#4EA6D5" transform="translate(232,166)"/>
<path d="M0 0 C1.32 0.33 2.64 0.66 4 1 C2.824375 1.3403125 2.824375 1.3403125 1.625 1.6875 C-1.21875 2.78125 -1.21875 2.78125 -2.3125 5.625 C-2.539375 6.40875 -2.76625 7.1925 -3 8 C-3.33 7.01 -3.66 6.02 -4 5 C-2.0625 2.3125 -2.0625 2.3125 0 0 Z " fill="#767676" transform="translate(241,98)"/>
<path d="M0 0 C1.0326802 2.78823655 1.04509293 3.8677274 0.0625 6.75 C-0.288125 7.4925 -0.63875 8.235 -1 9 C-1.33 8.34 -1.66 7.68 -2 7 C-2.66 6.67 -3.32 6.34 -4 6 C-3.34 6 -2.68 6 -2 6 C-2 4.68 -2 3.36 -2 2 C-1.34 2 -0.68 2 0 2 C0 1.34 0 0.68 0 0 Z " fill="#1A9EE8" transform="translate(360,185)"/>
<path d="M0 0 C0.66 0 1.32 0 2 0 C2.33 1.32 2.66 2.64 3 4 C1.68 4.33 0.36 4.66 -1 5 C-1.33 4.01 -1.66 3.02 -2 2 C-1.34 1.34 -0.68 0.68 0 0 Z " fill="#02A2F6" transform="translate(180,188)"/>
<path d="M0 0 C2.125 0.375 2.125 0.375 4 1 C2.68 1.33 1.36 1.66 0 2 C-0.33 3.32 -0.66 4.64 -1 6 C-1.66 6 -2.32 6 -3 6 C-2.42655063 3.13275314 -2.1385485 2.1385485 0 0 Z " fill="#4C93B7" transform="translate(250,180)"/>
<path d="M0 0 C0.66 0.33 1.32 0.66 2 1 C1.67 3.31 1.34 5.62 1 8 C0.01 8.33 -0.98 8.66 -2 9 C-1.34 6.03 -0.68 3.06 0 0 Z " fill="#58A0C3" transform="translate(421,177)"/>
<path d="M0 0 C-0.99 0.33 -1.98 0.66 -3 1 C-3.33 1.99 -3.66 2.98 -4 4 C-4.66 4 -5.32 4 -6 4 C-6.33 2.68 -6.66 1.36 -7 0 C-3.98968256 -0.93423645 -3.13349732 -1.04449911 0 0 Z " fill="#4AACDB" transform="translate(387,172)"/>
<path d="M0 0 C0.66 0 1.32 0 2 0 C2.125 3.375 2.125 3.375 2 7 C1.34 7.66 0.68 8.32 0 9 C-1.15941038 5.52176885 -0.70820884 3.54104422 0 0 Z " fill="#079FF8" transform="translate(437,162)"/>
<path d="M0 0 C0.33 1.32 0.66 2.64 1 4 C-1.4375 6.75 -1.4375 6.75 -4 9 C-4.66 8.67 -5.32 8.34 -6 8 C-4.02 5.36 -2.04 2.72 0 0 Z " fill="#052C3F" transform="translate(144,143)"/>
<path d="M0 0 C2.49361571 1.20381448 4.68143083 2.45428722 7 4 C4.36 4.33 1.72 4.66 -1 5 C-0.67 3.35 -0.34 1.7 0 0 Z " fill="#9C9C9C" transform="translate(245,111)"/>
</svg>
